<svg xmlns="http://www.w3.org/2000/svg" xmlns:xlink="http://www.w3.org/1999/xlink" width="34.268" height="42.834" viewBox="0 0 34.268 42.834">
  <defs>
    <clipPath id="clip-path">
      <rect id="Rectangle_2919" data-name="Rectangle 2919" width="34.268" height="42.834" fill="none"/>
    </clipPath>
  </defs>
  <g id="Group_4358" data-name="Group 4358" clip-path="url(#clip-path)">
    <path id="Path_6816" data-name="Path 6816" d="M10.12,33.733H24.148a1.55,1.55,0,0,0,1.145-.465,1.567,1.567,0,0,0,.462-1.151,1.538,1.538,0,0,0-.462-1.142,1.569,1.569,0,0,0-1.145-.455H10.12a1.549,1.549,0,0,0-1.144.464,1.57,1.57,0,0,0-.462,1.152,1.535,1.535,0,0,0,.462,1.141,1.562,1.562,0,0,0,1.144.456m0-9.1H24.148a1.553,1.553,0,0,0,1.145-.464,1.569,1.569,0,0,0,.462-1.151,1.536,1.536,0,0,0-.462-1.142,1.565,1.565,0,0,0-1.145-.455H10.12a1.546,1.546,0,0,0-1.144.464,1.569,1.569,0,0,0-.462,1.151,1.536,1.536,0,0,0,.462,1.142,1.561,1.561,0,0,0,1.144.455m-6.907,18.2a3.081,3.081,0,0,1-2.249-.964A3.083,3.083,0,0,1,0,39.622V3.213A3.085,3.085,0,0,1,.964.964,3.085,3.085,0,0,1,3.213,0H21.2a3.11,3.11,0,0,1,1.271.268,3.408,3.408,0,0,1,1.032.7l9.8,9.8A3.349,3.349,0,0,1,34,11.8a3.09,3.09,0,0,1,.268,1.27V39.622a3.295,3.295,0,0,1-3.213,3.213ZM20.936,11.566V3.213H3.213V39.622H31.055V13.172H22.542a1.578,1.578,0,0,1-1.606-1.606M3.213,3.213v0Z" transform="translate(0 -0.001)" fill="#07e8d8"/>
  </g>
</svg>
