<svg data-name="Layer 4" xmlns="http://www.w3.org/2000/svg" width="113.445" height="113.444" viewBox="0 0 113.445 113.444">
  <path d="M56.722 0C25.395 0 0 25.395 0 56.722s25.395 56.722 56.722 56.722 56.723-25.395 56.723-56.722S88.049 0 56.722 0Zm15.692 76.767c-1.361 2.27-3.344 4.049-5.947 5.338-2.604 1.29-5.697 1.935-9.279 1.935-5.732 0-10.306-1.409-13.72-4.228-3.416-2.817-5.22-7.068-5.41-12.753h11.894c.047 2.103.645 3.762 1.791 4.98s2.817 1.827 5.016 1.827c1.862 0 3.306-.537 4.335-1.612 1.026-1.075 1.54-2.496 1.54-4.263 0-2.293-.729-3.952-2.186-4.98-1.457-1.027-3.786-1.54-6.985-1.54H51.17v-9.96h2.293c2.435 0 4.406-.418 5.91-1.254 1.505-.835 2.258-2.329 2.258-4.478 0-1.72-.479-3.056-1.434-4.012-.956-.955-2.269-1.433-3.94-1.433-1.816 0-3.165.55-4.048 1.648-.885 1.099-1.398 2.46-1.541 4.084H38.703c.19-5.11 1.862-9.052 5.016-11.822 3.152-2.77 7.426-4.156 12.825-4.156 3.582 0 6.65.622 9.207 1.863 2.554 1.243 4.49 2.937 5.802 5.087s1.971 4.562 1.971 7.237c0 3.152-.788 5.72-2.364 7.702-1.576 1.982-3.416 3.331-5.518 4.048v.286c2.723.908 4.873 2.413 6.45 4.515 1.576 2.102 2.364 4.8 2.364 8.095 0 2.963-.68 5.578-2.042 7.846Z" style="fill:#07e8d8;stroke-width:0"/>
</svg>
