<?xml version="1.0" encoding="UTF-8"?>
<svg xmlns="http://www.w3.org/2000/svg" version="1.1" viewBox="0 0 380.1 96.5">
  <defs>
    <style>
      .cls-1 {
        fill: #fff;
      }
    </style>
  </defs>
  <!-- Generator: Adobe Illustrator 28.6.0, SVG Export Plug-In . SVG Version: 1.2.0 Build 709)  -->
  <g>
    <g id="d">
      <path class="cls-1" d="M170,44.3v6.3h-19.7v8.2h20.4v6.7h-27.2c0-7,0-14.1,0-21.3h26.5ZM23.4,29c.4,0,.6,0,.8.5,5.3,11.9,10.6,23.7,15.9,35.5,0,.1,0,.3.2.5h-2.7c-1.4,0-2.7,0-4.1,0-.5,0-.8-.1-1-.6-3.1-7.2-6.3-14.4-9.4-21.6-.9-2.1-1.9-4.3-2.9-6.6-.1.3-.2.5-.3.7-4,9.1-8,18.3-12,27.4-.2.5-.4.6-1,.6-1.8,0-3.6,0-5.4,0H0c.1-.3.3-.5.4-.7,5.2-11.7,10.5-23.4,15.7-35.1.2-.5.4-.6,1-.6,2.1,0,4.2,0,6.3,0h0ZM55.3,29.1c.4,0,.6.1.9.5,3.5,4.9,7.1,9.7,10.6,14.5.1.2.3.4.5.6.2-.2.3-.4.4-.6,3.5-4.9,7.1-9.7,10.6-14.5.3-.4.6-.5,1-.5,2.2,0,4.3,0,6.5,0h.7v36.3h-6.8v-26.1s0,0-.1,0c-.1.2-.3.3-.4.5-3.7,4.9-7.3,9.7-11,14.6-.6.9-1.6.9-2.2,0-3.5-4.9-7.1-9.7-10.6-14.5-.1-.2-.3-.4-.4-.6,0,0,0,0-.1,0v26.2h-6.8V29.2c.2,0,.4,0,.6,0h6.8ZM201.4,28.9c2.1,0,4.1.4,6,1.3,4.3,2,7,6.4,6.7,11.3,0,1.5-.3,3-.9,4.5-1.4,3.4-4,5.4-7.5,6.4-.3,0-.5.1-.8.2.3.4.6.7.9,1,3.3,3.7,6.5,7.3,9.8,11,.2.2.3.5.5.9h-7.8c-.3,0-.6-.2-.9-.4-3.3-3.7-6.5-7.4-9.8-11.2-.4-.4-.8-.6-1.3-.6-1.9,0-3.8,0-5.8,0v12.2c-2.4,0-4.6,0-6.9,0v-18.4h.8c5.4,0,10.8,0,16.2,0s1.9,0,2.8-.3c2.6-.8,4.1-3.3,3.8-6.3-.3-2.6-2.3-4.6-4.9-4.9-.6,0-1.2,0-1.7,0h-16.9v-6.4c.1,0,.3,0,.4,0,0,0,17.3,0,17.3,0ZM117.4,28.9c2.2,0,4.3.4,6.4,1.3,3.5,1.6,5.3,4.3,5.6,8.1.3,3.7-1.1,6.5-4.6,8.2,0,0,.2.1.2.2,3.8,1.3,5.7,5.6,5.5,8.7-.3,4.2-2.1,7.3-6.1,8.8-1.2.4-2.4.8-3.6.9-1.3.2-2.7.3-4,.3h-17.2v-21.6h.8c5.8,0,11.6-.1,17.4-.3.8,0,1.7-.2,2.5-.5,2.2-.8,3-3,2-5.1-.8-1.6-2.2-2.4-3.9-2.7-.6,0-1.2-.1-1.7-.1-5.4,0-10.8,0-16.2,0h-.8v-6.1c.2,0,.3,0,.5,0h17.3,0ZM116.9,49.6h-9.9c-.2,0-.4,0-.6,0v9.3c3.9,0,7.7,0,11.5,0,1.3,0,2.5-.3,3.7-.9,1-.5,1.7-1.2,2-2.3.5-1.6-.1-3.2-1.6-4.4-1.5-1.1-3.2-1.7-5-1.7h0ZM170.7,29.1v6.6h-27.2v-6.6h27.2Z"/>
    </g>
  </g>
</svg>