<svg width="147" height="26" viewBox="0 0 147 26" fill="none" xmlns="http://www.w3.org/2000/svg">
<path id="Logo_Amber" d="M114.9 10.9957V15.2735H101.584V20.8991H115.367V25.5H96.9559C96.9852 20.6942 96.9852 15.8884 96.9852 10.994H114.895L114.9 10.9957ZM15.8126 0.564264C15.9225 0.54877 16.0343 0.572596 16.1286 0.631606C16.2228 0.690615 16.2937 0.781087 16.3288 0.887317C19.9043 8.97576 23.5107 17.0625 27.0862 25.1214C27.1154 25.21 27.1447 25.2951 27.2032 25.4444H25.3793C24.4485 25.4444 23.5469 25.4149 22.6177 25.4444C22.4722 25.4663 22.3238 25.4337 22.2005 25.3528C22.0772 25.2718 21.9875 25.1481 21.9484 25.005C19.8251 20.1106 17.7036 15.1884 15.582 10.294C14.942 8.82812 14.3019 7.34139 13.6343 5.77824C13.5687 5.94024 13.491 6.097 13.402 6.24719C10.6674 12.4905 7.95448 18.7316 5.26341 24.9703C5.22233 25.1122 5.13222 25.2346 5.00942 25.3152C4.88663 25.3958 4.73927 25.4293 4.59409 25.4097C3.36211 25.3854 2.14734 25.401 0.922251 25.3767L0 25.3506L0.261537 24.9112L10.8985 1.00195C10.9396 0.860019 11.0297 0.737648 11.1525 0.657031C11.2753 0.576414 11.4226 0.542887 11.5678 0.562528C12.9925 0.592054 14.4172 0.59379 15.8126 0.564264ZM37.3859 0.65458C37.5038 0.643098 37.6224 0.667789 37.7261 0.725426C37.8299 0.783063 37.914 0.870963 37.9675 0.977632C40.3523 4.28978 42.7353 7.57761 45.1201 10.8776C45.2157 11.0227 45.3227 11.1598 45.4402 11.2875C45.5572 11.1416 45.6432 11.0235 45.731 10.9071C48.1158 7.59497 50.4988 4.30714 52.8836 1.00716C52.9585 0.891345 53.0629 0.797995 53.1858 0.736881C53.3087 0.675768 53.4456 0.649141 53.5822 0.65979C55.0361 0.689317 56.5193 0.65979 57.9733 0.65979H58.4378V25.4427H53.8438V7.62623C53.8145 7.59671 53.7852 7.59671 53.756 7.56718L53.4945 7.91455L46.0803 17.8492C46.0061 17.9838 45.8971 18.0954 45.7649 18.1721C45.6327 18.2488 45.4823 18.2878 45.3299 18.2847C45.1774 18.2817 45.0286 18.2368 44.8995 18.1549C44.7704 18.073 44.6659 17.9571 44.5971 17.8197C42.2123 14.5076 39.7999 11.2197 37.4151 7.91976C37.3274 7.78605 37.2303 7.65894 37.1244 7.53939C37.0951 7.56892 37.0659 7.56892 37.0366 7.59845V25.4427H32.415V0.680631C32.532 0.680631 32.6765 0.651104 32.7935 0.651104H37.3876L37.3859 0.65458ZM136.124 0.508686C137.532 0.498735 138.923 0.80922 140.195 1.41705C141.63 2.08613 142.83 3.17718 143.64 4.54712C144.449 5.91705 144.83 7.50191 144.731 9.09386C144.701 10.1347 144.505 11.164 144.151 12.142C143.724 13.2284 143.04 14.1924 142.158 14.9495C141.276 15.7065 140.223 16.2335 139.092 16.4841C138.92 16.5136 138.772 16.5727 138.54 16.63C138.772 16.894 138.946 17.1285 139.151 17.3247C141.36 19.8153 143.542 22.306 145.75 24.8261C145.867 24.972 145.954 25.1735 146.094 25.4114H140.801C140.582 25.3983 140.376 25.3043 140.221 25.1474C138.012 22.5977 135.801 20.0776 133.621 17.5053C133.513 17.3708 133.375 17.2637 133.218 17.1925C133.062 17.1213 132.891 17.0881 132.719 17.0955C131.441 17.125 130.138 17.0955 128.822 17.0955V25.3888C127.224 25.3593 125.711 25.3593 124.142 25.3593V12.8124H124.658C128.294 12.8124 131.928 12.8419 135.591 12.8419C136.238 12.8524 136.884 12.7736 137.509 12.6075C138.38 12.3227 139.118 11.7295 139.588 10.9377C140.059 10.1459 140.229 9.20896 140.068 8.30013C139.98 7.43612 139.599 6.62932 138.99 6.01559C138.381 5.40186 137.581 5.01871 136.725 4.93067C136.339 4.88181 135.95 4.86207 135.562 4.87161H124.164V0.529527C124.252 0.529527 124.369 0.5 124.455 0.5L136.124 0.508686ZM79.3125 0.508686C80.7918 0.491585 82.2579 0.791112 83.6141 1.38753C84.7044 1.85066 85.6415 2.61741 86.3161 3.5982C86.9907 4.57899 87.3748 5.73332 87.4236 6.92629C87.6085 8.06934 87.4046 9.24191 86.845 10.253C86.2854 11.2641 85.4032 12.0542 84.342 12.4946C84.4005 12.5536 84.459 12.5832 84.4865 12.6109C85.6325 13.0944 86.6039 13.9212 87.2695 14.9798C87.935 16.0383 88.2627 17.2775 88.2082 18.5301C88.2284 19.8415 87.841 21.1264 87.1002 22.204C86.3595 23.2817 85.3028 24.0978 84.0787 24.5378C83.2893 24.8378 82.471 25.0537 81.6371 25.1822C80.7331 25.3232 79.8195 25.3917 78.9048 25.3871H67.3043V10.6449H67.8204C71.7452 10.5858 75.67 10.5563 79.5672 10.4712C80.1341 10.4432 80.6931 10.326 81.2242 10.1238C81.5606 10.0166 81.8689 9.83463 82.1264 9.59131C82.384 9.34799 82.5843 9.0495 82.7125 8.71777C82.8408 8.38605 82.8938 8.02952 82.8676 7.67441C82.8414 7.31931 82.7366 6.97464 82.5611 6.66576C82.3071 6.1686 81.9352 5.74256 81.4786 5.42559C81.022 5.10862 80.4948 4.91055 79.944 4.84904C79.559 4.79041 79.1702 4.7608 78.7809 4.76046C75.1176 4.73093 71.4837 4.73093 67.8204 4.7014H67.3043V0.533002C67.4213 0.533002 67.5073 0.503475 67.6243 0.503475H79.3125V0.508686ZM78.9925 14.6326H72.282C72.1375 14.6326 72.0205 14.6621 71.8743 14.6621V20.9912C74.5206 20.9912 77.0792 21.0207 79.667 20.9912C80.5303 20.9825 81.3784 20.7613 82.1378 20.3468C82.4639 20.1963 82.7545 19.9774 82.9901 19.7045C83.2257 19.4316 83.4009 19.1112 83.504 18.7646C83.6555 18.2124 83.6302 17.626 83.4318 17.0892C83.2334 16.5524 82.8721 16.0926 82.3994 15.7755C81.4235 15.0221 80.2261 14.6198 78.9977 14.6326H78.9925ZM115.394 0.65458V5.13561H96.9834V0.65458H115.394Z" fill="white"/>
</svg>
