<?xml version="1.0" encoding="UTF-8"?><svg id="Layer_4" xmlns="http://www.w3.org/2000/svg" viewBox="0 0 130 130"><path d="M11.71,39.55v51c0,3.28,1.72,6.24,4.58,7.91l44.18,25.5c2.81,1.61,6.3,1.61,9.11,0l44.18-25.5c2.81-1.61,4.58-4.63,4.58-7.91v-51c0-3.28-1.72-6.24-4.58-7.91L69.58,6.14c-2.81-1.61-6.3-1.61-9.11,0L16.29,31.64c-2.81,1.61-4.53,4.63-4.53,7.91h-.05Z" fill="#213147"/><path d="M74.63,74.94l-6.3,17.28c-.16.47-.16.99,0,1.51l10.82,29.72,12.54-7.23-15.04-41.27c-.36-.94-1.67-.94-2.03,0Z" fill="#12aaff"/><path d="M87.27,45.9c-.36-.94-1.67-.94-2.03,0l-6.3,17.28c-.16.47-.16.99,0,1.51l17.75,48.66,12.54-7.23-21.96-60.16v-.05Z" fill="#12aaff"/><path d="M65,8.07c.31,0,.62.1.88.26l47.77,27.58c.57.31.88.94.88,1.56v55.16c0,.62-.36,1.25-.88,1.56l-47.77,27.58c-.26.16-.57.26-.88.26s-.62-.1-.88-.26l-47.77-27.58c-.57-.31-.88-.94-.88-1.56v-55.22c0-.62.36-1.25.88-1.56l47.77-27.58c.26-.16.57-.26.88-.26h0v.05ZM65,0c-1.72,0-3.38.42-4.94,1.3L12.28,28.88c-3.07,1.77-4.94,5-4.94,8.53v55.16c0,3.54,1.87,6.77,4.94,8.53l47.77,27.58c1.51.88,3.23,1.3,4.94,1.3s3.38-.42,4.94-1.3l47.77-27.58c3.07-1.77,4.94-5,4.94-8.53v-55.16c0-3.54-1.87-6.77-4.94-8.53L69.89,1.3c-1.51-.88-3.23-1.3-4.94-1.3h.05Z" fill="#9dcced"/><polygon points="33.36 113.4 37.78 101.33 46.63 108.66 38.35 116.26 33.36 113.4" fill="#213147"/><path d="M60.94,33.51h-12.13c-.88,0-1.72.57-2.03,1.41l-25.97,71.19,12.54,7.23,28.62-78.43c.26-.73-.26-1.46-.99-1.46l-.05.05Z" fill="#fff"/><path d="M82.17,33.51h-12.13c-.88,0-1.72.57-2.03,1.41l-29.66,81.29,12.54,7.23,32.27-88.52c.26-.73-.26-1.46-.99-1.46v.05Z" fill="#fff"/></svg>