<svg width="28" height="31" viewBox="0 0 28 31" fill="none" xmlns="http://www.w3.org/2000/svg">
<path d="M1.7184 9.70566C1.71509 9.70566 1.7124 9.70834 1.7124 9.71166V21.4657C1.7124 22.2217 2.1084 22.9057 2.7684 23.2897L12.9564 29.1697C13.6044 29.5417 14.4084 29.5417 15.0564 29.1697L25.2444 23.2897C25.8924 22.9177 26.3004 22.2217 26.3004 21.4657V9.70566C26.3004 8.94966 25.9044 8.26566 25.2444 7.88166L15.0564 2.00166C14.4084 1.62966 13.6044 1.62966 12.9564 2.00166L2.7684 7.88166C2.12212 8.25267 1.7265 8.94597 1.72441 9.69964C1.7244 9.70296 1.72172 9.70566 1.7184 9.70566Z" fill="#213147"/>
<path d="M16.2202 17.8651L14.7682 21.8491C14.7322 21.9571 14.7322 22.0771 14.7682 22.1971L16.5941 27.2095C16.9438 28.1695 18.0752 28.5814 18.9602 28.0709C19.6518 27.6721 19.9568 26.834 19.6835 26.0839L16.6882 17.8651C16.6042 17.6491 16.3042 17.6491 16.2202 17.8651Z" fill="#12AAFF"/>
<path d="M19.1367 11.176C19.1367 11.1719 19.1359 11.1678 19.1344 11.164C19.0473 10.9538 18.7519 10.9558 18.6687 11.1698L17.2167 15.1538C17.1807 15.2618 17.1807 15.3818 17.2167 15.5018L20.6381 24.8832C20.9881 25.8428 22.1192 26.2543 23.004 25.744C23.6959 25.345 24.0009 24.5064 23.727 23.7561L19.1387 11.1873C19.1374 11.1837 19.1367 11.1798 19.1367 11.176Z" fill="#12AAFF"/>
<path d="M14.0006 2.43994C14.0006 2.44325 14.0033 2.44593 14.0066 2.44599C14.0766 2.44728 14.1463 2.47094 14.2046 2.50594L25.2206 8.86594C25.3526 8.93794 25.4246 9.08194 25.4246 9.22594V21.9459C25.4246 22.0899 25.3406 22.2339 25.2206 22.3059L14.2046 28.6659C14.1446 28.7019 14.0726 28.7259 14.0006 28.7259C13.9286 28.7259 13.8566 28.7019 13.7966 28.6659L2.78059 22.3059C2.64859 22.2339 2.57659 22.0899 2.57659 21.9459V9.21394C2.57659 9.06994 2.66059 8.92594 2.78059 8.85394L13.7966 2.49394C13.8549 2.45894 13.9246 2.43528 13.9946 2.43399C13.9979 2.43393 14.0006 2.43662 14.0006 2.43994ZM14.0006 0.585938C13.6046 0.585938 13.2206 0.681938 12.8606 0.885938L1.84459 7.24594C1.13659 7.65394 0.70459 8.39794 0.70459 9.21394V21.9339C0.70459 22.7499 1.13659 23.4939 1.84459 23.9019L12.8606 30.2619C13.2086 30.4659 13.6046 30.5619 14.0006 30.5619C14.3966 30.5619 14.7806 30.4659 15.1406 30.2619L26.1566 23.9019C26.8646 23.4939 27.2966 22.7499 27.2966 21.9339V9.21394C27.2966 8.39794 26.8646 7.65394 26.1566 7.24594L15.1286 0.885938C14.7806 0.681938 14.3846 0.585938 13.9886 0.585938H14.0006Z" fill="#9DCCED"/>
<path d="M7.32165 27.0867C6.96524 26.8825 6.80793 26.4512 6.94924 26.0655L7.22055 25.325C7.46638 24.654 8.3023 24.4284 8.85234 24.8846C9.33487 25.2848 9.35337 26.0188 8.8916 26.4428L8.3107 26.9762C8.04027 27.2246 7.64021 27.2693 7.32165 27.0867Z" fill="#213147"/>
<path d="M13.07 8.31069C13.0662 8.31453 13.061 8.31669 13.0555 8.31669H10.268C10.064 8.31669 9.87201 8.44869 9.80001 8.64069L4.2854 23.7589C4.01169 24.5093 4.31677 25.3478 5.00867 25.7469C5.89356 26.2572 7.02477 25.8458 7.375 24.8862L13.304 8.64069C13.363 8.47554 13.248 8.31039 13.0845 8.30483C13.0791 8.30465 13.0739 8.30685 13.07 8.31069Z" fill="white"/>
<path d="M17.9602 8.31069C17.9602 8.314 17.9575 8.31669 17.9542 8.31669H15.1642C14.9602 8.31669 14.7682 8.44869 14.6962 8.64069L8.32968 26.0872C8.05593 26.8374 8.3609 27.6758 9.05266 28.0748C9.93752 28.5851 11.0687 28.1734 11.4185 27.2137L18.1882 8.64069C18.2475 8.47471 18.1311 8.30872 17.9662 8.30476C17.9629 8.30468 17.9602 8.30737 17.9602 8.31069Z" fill="white"/>
</svg>
