<svg data-name="Layer 4" xmlns="http://www.w3.org/2000/svg" width="129.512" height="129.512" viewBox="0 0 0">
  <g data-name="Bitcoin ico">
    <g data-name="Layer 4">
      <circle data-name="Ellipse 170" cx="64.756" cy="64.756" r="64.756" style="stroke-width:0;fill:#ffa800"/>
      <path data-name="symbol" d="M86.972 52.392c-.717-7.75-7.472-10.38-16.054-11.162l.05-10.75-6.636-.03-.05 10.46c-1.743 0-3.526 0-5.3.046l.05-10.536-6.635-.025-.054 10.745c-1.44 0-2.85.04-4.224.035v-.03l-9.156-.045-.03 6.974s4.902-.07 4.822 0a3.412 3.412 0 0 1 3.806 2.884l-.14 29.444a2.331 2.331 0 0 1-2.49 2.157c.084.074-4.827 0-4.827 0l-1.375 7.815 8.637.04c1.61 0 3.188.045 4.742.06l-.05 10.869 6.63.03.05-10.755c1.819.045 3.582.07 5.3.075l-.054 10.705 6.635.03.055-10.855c11.162-.577 18.983-3.312 20.004-13.638 1.384-6.005-2.363-11.995-8.368-13.378a11.159 11.159 0 0 0-1.096-.196 10.092 10.092 0 0 0 5.743-10.959l.015-.01Zm-9.39 23.203c-.034 8.124-14.141 7.133-18.64 7.118l.07-14.405c4.484 0 18.61-1.186 18.57 7.287Zm-2.988-20.338c-.04 7.392-11.8 6.475-15.551 6.475l.064-13.066c3.741.006 15.512-1.115 15.487 6.59Z" style="fill:#fff;stroke-width:0"/>
    </g>
  </g>
</svg>
