<?xml version="1.0" encoding="UTF-8"?>
<svg id="d" data-name="Layer 4" xmlns="http://www.w3.org/2000/svg" width="129.5119" height="129.5119" viewBox="0 0 129.5119 129.5119">
  <defs>
    <style>
      .i {
        fill: #ffa800;
      }

      .i, .j {
        stroke-width: 0px;
      }

      .j {
        fill: #fff;
      }
    </style>
  </defs>
  <g id="e" data-name="Bitcoin ico">
    <g id="f" data-name="Layer 4">
      <circle id="g" data-name="Ellipse 170" class="i" cx="64.7559" cy="64.7559" r="64.7559"/>
      <path id="h" data-name="symbol" class="j" d="m86.9722,52.3925c-.7173-7.7508-7.4718-10.3809-16.0545-11.1629l.0498-10.7495-6.635-.0299-.0498,10.4606c-1.7434,0-3.5267,0-5.3.0448l.0498-10.5353-6.635-.0249-.0548,10.7445c-1.4396,0-2.8493.0399-4.2241.0349v-.0299l-9.1555-.0448-.0299,6.9737s4.9015-.0697,4.8218,0c1.842-.2343,3.5332,1.0474,3.8057,2.8841l-.1395,29.444c-.093,1.283-1.2075,2.2482-2.4906,2.1569.0847.0747-4.8268,0-4.8268,0l-1.3748,7.8155,8.6374.0398c1.6089,0,3.188.0448,4.7421.0598l-.0498,10.869,6.63.0299.0498-10.7545c1.8181.0448,3.5815.0697,5.3.0747l-.0548,10.7047,6.635.0299.0548-10.8541c11.1629-.5778,18.9835-3.3125,20.0046-13.6386,1.3836-6.005-2.3629-11.9947-8.3679-13.3783-.362-.0834-.7279-.1487-1.0964-.1956,4.1917-1.9134,6.5552-6.423,5.7434-10.9587h0l.0149-.01Zm-9.3896,23.2025c-.0349,8.1244-14.1417,7.1331-18.6398,7.1182l.0697-14.4057c4.4831,0,18.6099-1.1855,18.57,7.2875Zm-2.9887-20.3383c-.0398,7.3921-11.8005,6.4756-15.5514,6.4756l.0648-13.0658c3.7409.005,15.5115-1.1158,15.4866,6.5902Z"/>
    </g>
  </g>
</svg>