<?xml version="1.0" encoding="UTF-8"?>
<svg id="a" data-name="Background" xmlns="http://www.w3.org/2000/svg" width="587" height="184" viewBox="0 0 587 184">
  <defs>
    <style>
      .c {
        fill: #fff;
        stroke-width: 0px;
      }
    </style>
  </defs>
  <g>
    <path class="c" d="M93.0667,149.642c-.0408,0-.0815,0-.1223-.0006-1.638-.0164-3.168-.3333-4.4296-.9173-.0443-.0132-.0863-.0313-.1234-.0531l-5.4908-3.2238-33.5252-19.589c-1.5721-.9263-2.3959-2.2516-2.2616-3.6375l-.0024-3.2944c-.006-.0248-.0108-.0713-.0108-.1244v-44.8502c0-.8611.0216-1.7065.2842-2.5796.2578-.8622.6247-1.7088,1.0888-2.5155.4844-.8411,1.0288-1.585,1.6188-2.2099.6068-.6599,1.2867-1.2173,2.0157-1.6508l.1583-.0815,39.2545-22.7923c.036-.0205.1187-.0525.1571-.0652,1.2315-.5887,2.8659-.9263,4.5231-.9021,1.6393.0163,3.1693.3333,4.4308.9172.0443.0133.0863.0314.1234.0537l5.4897,3.2226,33.5251,19.5897c1.5732.928,2.397,2.2535,2.2615,3.638l.0025,3.2703c.0048.0404.012.1257.012.148v44.851c0,.8242-.0216,1.7021-.2842,2.5782-.2602.8677-.6271,1.7136-1.0888,2.5167-.4832.84-1.0288,1.5833-1.62,2.21-.6079.6606-1.2878,1.2179-2.0145,1.6502l-.1559.0809-39.257,22.7929c-.036.0205-.1187.0525-.1571.0652-1.2027.5742-2.7855.9026-4.402.9026h0ZM88.9393,147.5606l.0384.0163c1.114.5265,2.4906.8133,3.9787.8279,1.5109.0302,2.9212-.2735,4.0591-.8127l5.4968-3.1412,33.9376-19.7351c.5888-.352,1.1751-.8333,1.7076-1.4124.5312-.5622,1.018-1.2275,1.4533-1.9841.4149-.7198.7434-1.4781.9761-2.2535.2134-.7148.2314-1.4582.2314-2.2208v-44.851c-.006-.0181-.0109-.0604-.012-.1063v-3.3728c.0899-.9444-.5144-1.8363-1.6548-2.5083l-38.944-22.7712-.0383-.0163c-1.114-.5265-2.4906-.8133-3.9799-.8278-1.4581-.0386-2.9198.2741-4.0578.8127l-5.4968,3.1411-33.94,19.7363c-.5888.3514-1.1752.8333-1.7064,1.4111-.5288.5603-1.0157,1.2264-1.4521,1.9848-.4173.7233-.7459,1.4812-.9761,2.2522-.2134.712-.2314,1.4576-.2314,2.2221v44.8502c0,.0054.0108.119.0108.1244v3.3548c-.0887.945.5156,1.8374,1.6536,2.5082l38.9464,22.7712h0Z"/>
    <path class="c" d="M132.8297,76.1224c-.2183-.4571-.5276-.8417-.8489-1.0749-.0252-.0236-.0696-.0555-.114-.0844v-.0006c-.0492-.035-.102-.0713-.162-.1038-.0934-.0617-.1858-.1021-.271-.1365l-.0012.0006-.0228-.0096-7.467-4.1978-.0109-.0048c-.0359-.0242-.0779-.0502-.1355-.0858-.4951-.2929-1.0636-.4088-1.6691-.3465-.602.0458-1.2256.2583-1.8467.6285l-27.4312,15.945-7.804,4.3373c-.0155.0073-.0312.0158-.0467.0242l-27.0774,15.8859c-1.1692.6647-1.8635,1.6031-1.9619,2.6465-.0132.0598-.0215.119-.0215.1655l.0024,8.9293c-.1175,1.2179.5924,2.3748,1.9486,3.1743l31.5658,18.4557c.0288.0156.0682.0331.1091.0477,1.0516.4867,2.3249.7511,3.7832.765,1.343,0,2.6597-.2741,3.7497-.7923l31.8043-18.4556c.012-.006.1295-.0664.1403-.073.6079-.3618,1.1752-.8266,1.6812-1.3761.4917-.5199.9437-1.137,1.3454-1.8345.3861-.6726.6894-1.3749.9018-2.0855.2218-.7366.2398-1.4401.2398-2.1563v-36.2828c0-.7264-.1271-1.3652-.3801-1.9044ZM117.3838,92.324l6.5316-3.7898v24.8905l-6.4969-3.809-.0347-17.2918ZM116.804,110.687l5.2411,3.0728,1.0584.6207-21.2424,12.3937v-7.4266l14.9428-8.6606ZM116.191,109.6152l-14.3299,8.3056v-16.6996l14.2954-8.3002.0345,16.6941ZM92.5175,96.7071v42.8541c-.8814-.0796-1.6919-.2862-2.3635-.6032l-.0348-.0157-4.0123-2.3573v-43.6397l6.4106,3.7618ZM84.6345,111.229v6.3056l-5.4045-3.1627,5.4045-3.1429ZM84.6345,102.1529v7.363l-6.8735,3.9967-6.3062-3.6899,13.1797-7.6698ZM69.6193,109.8004c-.0002.0069-.0027.0134-.0027.0204,0,.0042.0016.0081.0016.0122l-.0273-.016.0284-.0166ZM57.4108,112.4177c.1475.1105.3045.2174.4784.3195l26.7453,15.6515v7.3363l-26.0042-15.1932c-.8358-.4927-1.2819-1.1346-1.2195-1.8199v-6.2943ZM123.1395,71.7609c.048.0398.1176.0791.1907.1093l5.3409,3.0022c-.1642.0761-.3297.163-.4951.2615l-34.9198,20.2877-6.3901-3.7497,6.7067-3.728,27.4504-15.956c.4329-.2566.843-.4015,1.2423-.4323.2913-.0338.5612.0175.8741.2053Z"/>
  </g>
  <g>
    <path class="c" d="M221.9284,69.5909h-41.2381v51.3606h41.31c5.5425,0,10.0517-4.5092,10.0517-10.0517v-31.1853c0-5.5818-4.5413-10.1236-10.1236-10.1236ZM190.7431,111.1698c-.1601,0-.2717-.1111-.2717-.27v-31.2571c0-.1601.1116-.2722.2717-.2722h31.1853c.1606,0,.2722.1122.2722.2722v31.2571c0,.159-.1116.27-.2722.27h-31.1853Z"/>
    <path class="c" d="M249.3831,69.519h-.2232c-5.2703,0-9.5579,4.2881-9.5579,9.5584v31.8223c0,5.5425,4.5092,10.0517,10.0512,10.0517h31.7521c5.2703,0,9.5584-4.2881,9.5584-9.5584v-.2232h-41.5806v-41.6508Z"/>
    <path class="c" d="M338.5169,69.5909h-31.6105c-5.5425,0-10.0523,4.5092-10.0523,10.0517v31.2571c0,5.5425,4.5097,10.0517,10.0523,10.0517h31.6094c5.2703,0,9.5579-4.2881,9.5579-9.5584v-.2232h-41.1679c-.1497,0-.2711-.1209-.2711-.27v-31.2571c0-.1503.122-.2722.2717-.2722h41.1673v-.2232c0-5.2692-4.287-9.5563-9.5568-9.5563Z"/>
    <path class="c" d="M359.7011,111.2417c-2.6771,0-4.8549,2.1778-4.8549,4.8544s2.1778,4.8554,4.8549,4.8554,4.8549-2.1778,4.8549-4.8554-2.1778-4.8544-4.8549-4.8544Z"/>
    <path class="c" d="M379.9728,69.519h-.2232c-5.2703,0-9.5579,4.2881-9.5579,9.5584v31.8223c0,5.5425,4.5092,10.0517,10.0517,10.0517h31.7515c5.2703,0,9.5584-4.2881,9.5584-9.5584v-.2232h-41.5806v-41.6508Z"/>
    <path class="c" d="M427.1606,84.4165v36.535h9.7104v-41.4613h-4.7841c-2.7207,0-4.9263,2.2056-4.9263,4.9263Z"/>
    <path class="c" d="M432.0155,64.9391c-2.6771,0-4.8549,2.1778-4.8549,4.9262,0,2.6776,2.1778,4.8554,4.8549,4.8554s4.8554-2.1778,4.8554-4.9262c0-2.6776-2.1784-4.8554-4.8554-4.8554Z"/>
    <path class="c" d="M476.3984,79.4902h-32.1158v41.4613h9.7098v-31.4804c0-.159.1116-.27.2722-.27h22.1337c.1601,0,.2717.1111.2717.27v31.4804h9.7104v-31.4804c0-5.5033-4.4781-9.9809-9.982-9.9809Z"/>
    <path class="c" d="M535.1086,79.4902h-7.6374c-1.6922,0-3.3075.7067-4.456,1.9494l-12.8361,13.8898h-6.963v-19.7885c0-5.2394-4.2474-9.4868-9.4868-9.4868h-.2236v54.8974h9.7104v-15.8404h6.963l12.6675,13.7083c1.256,1.3592,3.0226,2.1321,4.8732,2.1321h7.3888c0-1.7463-.6495-3.4303-1.8222-4.7243l-14.506-16.0064,14.506-16.0064c1.1727-1.294,1.8222-2.9779,1.8222-4.7243Z"/>
  </g>
</svg>
