<?xml version="1.0" encoding="UTF-8"?>
<svg id="d" data-name="Layer 4" xmlns="http://www.w3.org/2000/svg" width="130" height="130" xmlns:xlink="http://www.w3.org/1999/xlink" viewBox="0 0 130 130">
  <defs>
    <style>
      .g {
        fill: url(#e);
      }

      .g, .h {
        stroke-width: 0px;
      }

      .h {
        fill: #fff;
      }
    </style>
    <radialGradient id="e" cx="25.0866" cy="5.9225" fx="25.0866" fy="5.9225" r="136.458" gradientUnits="userSpaceOnUse">
      <stop offset=".1011" stop-color="#93009e"/>
      <stop offset="1" stop-color="#001fba"/>
    </radialGradient>
  </defs>
  <circle class="g" cx="65" cy="65" r="65"/>
  <g>
    <g>
      <path class="h" d="m72.442,93.5761h-33.0917c-1.3373,0-2.4684-1.1312-2.4684-2.4684v-28.2486c0-1.3373,1.1312-2.4684,2.4684-2.4684h18.9651c2.6487,0,4.7963-2.1476,4.7963-4.7963s-2.1476-4.7963-4.7963-4.7963h-13.6676v-9.3561c0-5.6324,5.0469-10.2156,11.2484-10.2156,2.3045,0,4.5223.63,6.4099,1.8244,2.2412,1.4145,5.2015.7424,6.6183-1.4942,1.4145-2.2412.7447-5.2038-1.4942-6.6183-3.4239-2.1616-7.4123-3.3045-11.5341-3.3045-11.4919,0-20.841,8.8853-20.841,19.8082v10.1822c-4.529,1.738-7.7659,6.1014-7.7659,11.2349v28.2486c0,6.6511,5.4099,12.061,12.061,12.061h33.0917c2.6487,0,4.7963-2.1476,4.7963-4.7963s-2.1476-4.7963-4.7963-4.7963Z"/>
      <path class="h" d="m55.943,72.1731c-2.6487,0-4.7705,2.1476-4.7705,4.7963s2.171,4.7963,4.8197,4.7963,4.7963-2.1476,4.7963-4.7963-2.1476-4.7963-4.7963-4.7963h-.0492Z"/>
    </g>
    <path id="f" data-name="symbol" class="h" d="m107.0683,51.4894c-.557-6.0087-5.8068-8.0467-12.4444-8.6511l.0398-8.3308-5.1443-.0235-.0386,8.1113c-1.3524-.0061-2.7348.0138-4.1084.0344l.0399-8.165-5.1415-.0241-.0419,8.3285c-1.1139.0172-2.2077.0325-3.2742.0282l-.0005-.0258-7.0952-.0355-.0246,5.4159s3.7992-.0537,3.7357.015c2.0837.0103,2.7561,1.2059,2.9485,2.2358l-.11,22.8219c-.0945.646-.485,1.6749-1.9408,1.6706.0655.0578-3.7395-.0184-3.7395-.0184l-1.0512,6.0512,6.6945.031c1.2458.0073,2.4715.0338,3.6748.047l-.0383,8.4257,5.1387.0248.0398-8.3366c1.4108.0353,2.7762.0527,4.1093.0578l-.042,8.2982,5.1443.0235.042-8.4107c8.6509-.4488,14.7144-2.5684,15.5044-10.5706.6378-6.4436-2.4247-9.3344-7.3285-10.5193,2.9897-1.4832,4.8671-4.1123,4.4521-8.5091h0Zm-7.2836,17.9825c-.0274,6.2966-10.9612,5.5294-14.4477,5.5164l.0549-11.1635c3.4874.0171,14.4247-.9203,14.3928,5.6471Zm-2.317-15.7614c-.0291,5.7286-9.1475,5.0176-12.0515,5.0043l.0489-10.1248c2.904.0133,12.0306-.8545,12.0026,5.1205Z"/>
  </g>
</svg>