<?xml version="1.0" encoding="UTF-8"?>
<svg xmlns="http://www.w3.org/2000/svg" version="1.1" viewBox="0 0 380.1 96.5">
  <defs>
    <style>
      .cls-1 {
        isolation: isolate;
      }

      .cls-2 {
        fill: #fff;
      }
    </style>
  </defs>
  <!-- Generator: Adobe Illustrator 28.6.0, SVG Export Plug-In . SVG Version: 1.2.0 Build 709)  -->
  <g>
    <g id="Layer_1">
      <g id="Layer_4">
        <g>
          <g class="cls-1">
            <g class="cls-1">
              <g class="cls-1">
                <path class="cls-2" d="M102.3,43.8c1.1-2.1,2.5-3.8,4.3-4.9,1.8-1.1,3.9-1.7,6.1-1.7s3.4.4,4.9,1.1c1.5.8,2.7,1.8,3.5,3v-12.7h8.4v36.3h-8.4v-3.9c-.8,1.3-1.9,2.4-3.4,3.1-1.5.8-3.1,1.2-5.1,1.2s-4.3-.6-6.1-1.7c-1.8-1.2-3.3-2.8-4.3-4.9-1.1-2.1-1.6-4.6-1.6-7.4s.5-5.3,1.6-7.4ZM119.4,46.3c-1.2-1.2-2.6-1.8-4.2-1.8s-3.1.6-4.2,1.8c-1.2,1.2-1.7,2.8-1.7,4.9s.6,3.7,1.7,5c1.2,1.2,2.6,1.8,4.2,1.8s3.1-.6,4.2-1.8c1.2-1.2,1.7-2.9,1.7-4.9s-.6-3.7-1.7-4.9Z"/>
                <path class="cls-2" d="M144,28.6v36.3h-8.4V28.6h8.4Z"/>
                <path class="cls-2" d="M150.1,43.8c1.2-2.1,2.8-3.8,4.9-4.9,2.1-1.1,4.5-1.7,7.1-1.7s6.3.9,8.6,2.7c2.3,1.8,3.8,4.3,4.5,7.6h-8.9c-.8-2.1-2.2-3.1-4.4-3.1s-2.8.6-3.7,1.8c-.9,1.2-1.4,2.9-1.4,5.1s.5,3.9,1.4,5.1c.9,1.2,2.1,1.8,3.7,1.8s3.6-1,4.4-3.1h8.9c-.7,3.2-2.2,5.7-4.6,7.5-2.3,1.8-5.2,2.7-8.6,2.7s-5.1-.6-7.1-1.7c-2.1-1.1-3.7-2.8-4.9-4.9-1.2-2.1-1.7-4.6-1.7-7.4s.6-5.3,1.7-7.4Z"/>
                <path class="cls-2" d="M205.3,50.2c1.2,1.6,1.8,3.3,1.8,5.3,0,2.9-1,5.2-3,6.8s-4.8,2.5-8.4,2.5h-16V30.5h15.5c3.5,0,6.2.8,8.2,2.4,2,1.6,3,3.8,3,6.5s-.5,3.7-1.6,5-2.5,2.3-4.2,2.8c2,.4,3.6,1.4,4.8,3ZM188.1,44.4h5.5c1.4,0,2.4-.3,3.2-.9.7-.6,1.1-1.5,1.1-2.7s-.4-2.1-1.1-2.7c-.7-.6-1.8-.9-3.2-.9h-5.5v7.2ZM197.5,57.2c.8-.6,1.2-1.6,1.2-2.8s-.4-2.2-1.2-2.8c-.8-.7-1.9-1-3.3-1h-6.1v7.6h6.2c1.4,0,2.5-.3,3.3-1Z"/>
                <path class="cls-2" d="M236.7,30.5v6.7h-9.1v27.7h-8.4v-27.7h-9.1v-6.7h26.6Z"/>
                <path class="cls-2" d="M241.7,38.6c1.5-2.7,3.5-4.7,6.1-6.2,2.6-1.5,5.6-2.2,8.9-2.2s7.6,1.1,10.5,3.2c2.9,2.2,4.9,5.1,5.8,8.8h-9.2c-.7-1.4-1.7-2.5-2.9-3.3-1.3-.8-2.7-1.1-4.3-1.1-2.6,0-4.7.9-6.3,2.7-1.6,1.8-2.4,4.2-2.4,7.2s.8,5.4,2.4,7.2c1.6,1.8,3.7,2.7,6.3,2.7s3-.4,4.3-1.1c1.3-.8,2.2-1.8,2.9-3.3h9.2c-1,3.7-2.9,6.7-5.8,8.8-2.9,2.1-6.4,3.2-10.5,3.2s-6.3-.7-8.9-2.2c-2.6-1.5-4.7-3.6-6.1-6.2-1.5-2.6-2.2-5.7-2.2-9.1s.7-6.4,2.2-9.1Z"/>
              </g>
            </g>
          </g>
          <g>
            <path id="symbol" class="cls-2" d="M59.2,38.5c-.5-5.4-5.2-7.2-11.1-7.7v-7.5h-4.6v7.3h-3.7v-7.3h-4.6v7.5h-9.3v4.8s3.4,0,3.3,0c1.9,0,2.5,1.1,2.6,2v20.4c-.2.6-.5,1.5-1.8,1.5h-3.3l-.9,5.4h9.3v7.5h4.6v-7.5h3.7v7.4h4.6v-7.5c7.8-.4,13.2-2.3,13.9-9.5.6-5.8-2.2-8.4-6.6-9.4,2.7-1.3,4.4-3.7,4-7.6h0v.2ZM52.6,54.6c0,5.6-9.8,5-12.9,4.9v-10c3.2,0,13-.8,12.9,5.1h0ZM50.6,40.5c0,5.1-8.2,4.5-10.8,4.5v-9.1c2.6,0,10.8-.8,10.8,4.6Z"/>
            <path class="cls-2" d="M83.9,71.6c1-1.7,1.5-3.6,1.5-5.5V29.4c-1.7,0-7,3.2-7,8.1v28.7c0,.7-.2,1.4-.5,2s-.9,1.1-1.5,1.5l-24.8,14.4c-4.2,2.5-4.3,8.6-3.4,10.1l31.7-18.5c1.7-1,3.1-2.3,4-4"/>
            <path class="cls-2" d="M1.5,71.6c-1-1.7-1.5-3.6-1.5-5.5V29.4c1.7,0,7,3.2,7,8.1v28.7c0,.7.2,1.4.5,2s.9,1.1,1.5,1.5l24.8,14.4c4.2,2.5,4.3,8.6,3.4,10.1l-31.7-18.5c-1.7-1-3-2.3-4-4"/>
            <path class="cls-2" d="M42.7,1c1.9,0,3.8.5,5.5,1.5l31.8,18.3c-.9,1.5-6.3,4.5-10.5,2.1l-24.8-14.3c-.6-.4-1.3-.5-2-.5s-1.4.2-2,.5l-24.8,14.3c-4.2,2.4-9.6-.6-10.5-2.1L37.2,2.5c1.7-1,3.6-1.5,5.5-1.5"/>
          </g>
        </g>
      </g>
    </g>
  </g>
</svg>
