<?xml version="1.0" encoding="UTF-8"?><svg id="Layer_4" xmlns="http://www.w3.org/2000/svg" xmlns:xlink="http://www.w3.org/1999/xlink" viewBox="0 0 130.01 130"><defs><clipPath id="clippath"><rect y="0" width="130" height="130" fill="none"/></clipPath></defs><g id="Group_4427"><g clip-path="url(#clippath)"><g id="Group_4400"><path id="Path_6831" d="M130.01,65c0,35.9-29.1,65-65,65S0,100.9,0,65C0,29.11,29.11,0,65,0c35.9,0,65,29.09,65.01,64.99h0" fill="#fff"/><path id="Path_6832" d="M36.71,65.83s.03,0,.04,0c.19-.14.41-.26.64-.33l3.71-1.68,3.26-1.48,3.75-1.7,3.17-1.44,3.78-1.71,3.19-1.45,3.73-1.68,2.74-1.26c.1-.05.19-.14.31-.07.02.02.03.05.03.08,0,.1,0,.21,0,.32v28.78c.02.14,0,.29-.06.42l-2.56-1.5-21.86-12.93-3.87-2.28-.02-.06Z" fill="#393939"/><path id="Path_6833" d="M65.01,82.58v-29.59c-.02-.09-.03-.19-.02-.29V19.4c0-.13-.07-.29.1-.38.61,1,1.22,2.01,1.83,3.02l26.21,43.5c.06.1.11.19.16.29-.13.06-.24,0-.34-.06l-2.15-.98-4.25-1.93-4.2-1.92-4.28-1.95-4.16-1.89-4.31-1.96-4.16-1.89-.12-.06c-.12-.05-.19-.03-.19.11v28.81c.03.14,0,.29-.06.42,0,.03,0,.05-.05.03" fill="#343434"/><path id="Path_6834" d="M65.04,82.55c0-2.36,0-4.71,0-7.07v-22.16c0-.32,0-.32.31-.18l4.89,2.22,3.23,1.48,4.69,2.1,2.68,1.22,3.85,1.74,2.68,1.22,3.78,1.71,2.07.94s.07.02.11.03c0,.12-.11.13-.18.16l-14.19,8.41-13.52,7.99c-.1.09-.23.15-.36.17" fill="#141414"/><path id="Path_6835" d="M65.05,87.95l5.92-3.5,16.77-9.9,5.3-3.13c.06-.04.11-.1.2-.08,0,.08-.07.13-.11.19-9.31,13.11-18.63,26.23-27.94,39.35-.05.07-.06.2-.2.19-.05-.12-.07-.25-.07-.37,0-7.45,0-14.9,0-22.36,0-.14-.03-.29.12-.39" fill="#3c3c3b"/><path id="Path_6836" d="M65.05,87.95c-.04.11-.06.22-.04.33,0,7.49,0,14.98,0,22.48v.32c-.4-.49-.74-1.02-1.11-1.53-3.22-4.54-6.45-9.08-9.67-13.62l-9.64-13.59-7.68-10.83-.17-.24.39.21,16.65,9.84,11.09,6.56c.06.03.12.06.18.08" fill="#8b8b8b"/><path id="Path_6837" d="M65.09,19.02c-.07.08-.04.19-.04.28v33.39c0,.1.04.21-.04.31h0c-.05-.06-.08-.14-.07-.23V19.49c-.02-.19,0-.38.08-.55h.04l.04.1" fill="#393939"/><path id="Path_6838" d="M65.01,18.93c0,11.32,0,22.64,0,33.97v.09l-3.97,1.81-4.2,1.91-7.29,3.31-5.09,2.32-7.57,3.43s-.07.02-.11.03c.42-.71.84-1.42,1.26-2.13l10.82-17.95,13.81-22.92,2.28-3.78s.06-.08.09-.12" fill="#8b8b8b"/></g></g></g></svg>