<?xml version="1.0" encoding="UTF-8"?>
<svg id="d" data-name="Layer 4" xmlns="http://www.w3.org/2000/svg" width="130.01" height="130" xmlns:xlink="http://www.w3.org/1999/xlink" viewBox="0 0 130.01 130">
  <defs>
    <style>
      .p {
        fill: #393939;
      }

      .p, .q, .r, .s, .t, .u, .v {
        stroke-width: 0px;
      }

      .q {
        fill: none;
      }

      .r {
        fill: #141414;
      }

      .s {
        fill: #343434;
      }

      .t {
        fill: #3c3c3b;
      }

      .w {
        clip-path: url(#f);
      }

      .u {
        fill: #fff;
      }

      .v {
        fill: #8b8b8b;
      }
    </style>
    <clipPath id="f">
      <rect class="q" y="0" width="130" height="130"/>
    </clipPath>
  </defs>
  <g id="e" data-name="Group 4427">
    <g class="w">
      <g id="g" data-name="Group 4400">
        <path id="h" data-name="Path 6831" class="u" d="m130.01,65c0,35.8985-29.1015,65-65,65S.01,100.8985.01,65C.01,29.1054,29.1054.0055,65,0c35.8985-.0055,65.0045,29.0915,65.01,64.99v.01"/>
        <path id="i" data-name="Path 6832" class="p" d="m36.7081,65.8311c.0132.0067.0288.0067.042,0,.1928-.1447.4089-.2556.6389-.3279l3.7074-1.6814,3.2576-1.4838,3.7494-1.7024,3.1736-1.4418,3.7831-1.715,3.1946-1.4544,3.7284-1.6814,2.7448-1.261c.0967-.0462.1892-.1387.311-.0715.0162.0227.0277.0484.0336.0757.007.105.007.2103,0,.3153v28.7765c.0247.1433.0026.2906-.063.4203l-2.5557-1.4964-21.8577-12.9297-3.8671-2.2824-.021-.0589Z"/>
        <path id="j" data-name="Path 6833" class="s" d="m65.0054,82.5817v-29.5878c-.0223-.095-.0294-.1929-.021-.29V19.4003c0-.1261-.0715-.29.1009-.3783.6095,1.0046,1.2232,2.0092,1.8285,3.018l26.2082,43.501c.0588.0967.1093.1934.1639.29-.1303.063-.2354,0-.3405-.063l-2.1521-.9794-4.2454-1.9294-4.2034-1.921-4.2833-1.9504-4.1614-1.8915-4.3085-1.9588-4.1614-1.8915-.1219-.0588c-.1177-.0546-.1891-.0294-.1891.1135v28.8101c.0253.1432.0031.2908-.063.4203,0,.0252,0,.0462-.0462.0336"/>
        <path id="k" data-name="Path 6834" class="r" d="m65.039,82.5522c0-2.3567,0-4.7134,0-7.0701v-22.1603c0-.3195,0-.3153.3069-.1807l4.8886,2.2236,3.2282,1.4754,4.6868,2.1017,2.6776,1.2232,3.8461,1.7444,2.6776,1.2232,3.7831,1.7066,2.0681.9416c.0344.0131.0695.0243.1051.0336,0,.1219-.1135.1261-.1807.1639l-14.1907,8.4068-13.5181,7.9865c-.1027.0866-.2256.1459-.3573.1723"/>
        <path id="l" data-name="Path 6835" class="t" d="m65.0474,87.9494l5.9226-3.5014,16.7674-9.899,5.3047-3.1315c.0588-.0378.1135-.1009.2018-.0799,0,.0841-.0672.1303-.1093.1891-9.3119,13.1118-18.6267,26.2292-27.9442,39.3523-.0504.0715-.063.2017-.1976.1891-.0507-.1179-.0737-.2459-.0672-.3741,0-7.4512,0-14.9039,0-22.3579,0-.1387-.0294-.29.1177-.3909"/>
        <path id="m" data-name="Path 6836" class="v" d="m65.0474,87.9536c-.0431.1051-.0562.22-.0378.3321,0,7.4905,0,14.9823,0,22.4756v.3152c-.3993-.4876-.7398-1.0172-1.1055-1.53-3.2226-4.5397-6.4452-9.0807-9.6678-13.6232l-9.6384-13.5896-7.6838-10.8322-.1681-.2438.3909.2144,16.6455,9.8444,11.0886,6.5573c.0598.0307.1216.0574.185.0799"/>
        <path id="n" data-name="Path 6837" class="p" d="m65.0852,19.022c-.0715.0841-.0378.1892-.0378.2816v33.3876c0,.1009.0378.2102-.0378.3068h0c-.0538-.0627-.0796-.1447-.0715-.227V19.4886c-.0175-.1869.0084-.3754.0757-.5506h.042l.0378.0967"/>
        <path id="o" data-name="Path 6838" class="v" d="m65.0054,18.9337c0,11.3212,0,22.6437,0,33.9677v.0883l-3.9722,1.8117-4.2034,1.9125-7.2887,3.3123-5.0945,2.3203-7.5661,3.4342c-.0342.0125-.0693.0224-.1051.0294.4203-.7104.8407-1.4207,1.261-2.1269l10.8154-17.9485,13.8124-22.9212,2.2782-3.7831c.0287-.0422.0595-.0829.0925-.1219"/>
      </g>
    </g>
  </g>
</svg>