<?xml version="1.0" encoding="utf-8"?>
<!-- Generator: Adobe Illustrator 19.2.1, SVG Export Plug-In . SVG Version: 6.00 Build 0)  -->
<svg version="1.1" id="layer" xmlns="http://www.w3.org/2000/svg" xmlns:xlink="http://www.w3.org/1999/xlink" x="0px" y="0px"
	 viewBox="0 0 652 652" style="enable-background:new 0 0 652 652;" xml:space="preserve">
<style type="text/css">
	.st0{fill:#FFFFFF;}
</style>
<path class="st0" d="M607.7,335l-8.5,12l10.2,14.4h17.1L607.7,335z M609.4,291.5l-10.1,14.5l8.4,12l18.8-26.5H609.4z M576.9,291.5
	h-17.2l24.9,35.5l-24.2,34.5h17.2l23.7-34.5L576.9,291.5z M26.4,320.5v41.3H41v-26.5c0-0.7,0.2-1.3,0.8-1.8c0.5-0.5,1.1-0.7,1.8-0.7
	h20.4c2.1,0,3.7-1.1,4.7-3.4l3.1-8.9H26.4z M26.4,291.4v12.7h50.8c2.1,0,3.7-1.1,4.7-3.2l3.6-9.4H26.4z M137.8,296.5
	c-1.6-3.4-4.1-5-7.4-5h-11.5l-29,70.4h15.2l21.9-56.1l21.5,56.1h15.8L137.8,296.5z M207.9,348.9v-52.5c0-1.4-0.5-2.6-1.5-3.6
	c-1-1-2.2-1.5-3.6-1.5h-9.6v70.4h44.6c2,0,3.6-1.1,4.6-3.2l3.8-9.7H207.9z M322.7,343.5c-1,0-2,0.3-3,1c-4.4,3.3-9.3,4.9-14.7,4.9
	c-6.6,0-12-2.2-16.4-6.6c-4.4-4.4-6.5-9.8-6.5-16.1c0-6.6,2.2-12,6.5-16.4c4.3-4.4,9.7-6.5,16-6.5c5.6,0,10.6,1.7,15.1,5.2
	c1,0.7,2,1,3,1c1,0,2-0.3,2.9-0.9l8.1-5.6c-3.2-3.9-7.4-7-12.6-9.5c-5.2-2.4-10.7-3.6-16.6-3.6c-6.9,0-13.2,1.6-18.9,4.8
	c-5.7,3.2-10.2,7.5-13.6,13c-3.4,5.5-5,11.6-5,18.5c0,6.5,1.6,12.5,4.8,18c3.2,5.5,7.6,9.9,13.2,13.2c5.6,3.3,12.1,5,19.5,5
	c5.6,0,10.9-1.2,16-3.5c5.1-2.3,9.4-5.5,12.8-9.5l-7.8-5.5C324.7,343.8,323.7,343.5,322.7,343.5z M527.9,291.4h-13.7V342
	c-7-10.2-23-33.5-30.5-44.5c-2.6-3.8-6.8-6-11.4-6l-7,0v70.4h13.8v-47l26.9,40.8c2.6,3.9,6.9,6.2,11.5,6.2h10.3V291.4z M361.8,307.8
	c-3.2,5.5-4.9,11.6-4.9,18.2c0,7.1,1.7,13.4,5.2,18.9c3.4,5.5,8,9.7,13.7,12.8c3.9,2.1,8,3.5,12.3,4.2v-13.7c-3.7-1-7-2.9-9.8-5.8
	c-4.3-4.4-6.4-9.8-6.4-16.3c0-6.6,2.1-12,6.4-16.4c2.8-2.9,6.1-4.8,9.8-5.8v-13.7c-4.7,0.7-9,2.2-12.9,4.5
	C369.5,297.9,365.1,302.3,361.8,307.8z M426.3,307.1c-3.4-5.4-8-9.7-13.6-12.8c-3.9-2.1-8-3.5-12.4-4.2v13.7c3.8,1,7.1,2.9,9.9,5.8
	c4.2,4.4,6.3,9.8,6.3,16.3c0,6.5-2.1,12-6.3,16.3c-2.8,2.9-6.1,4.9-9.9,5.8v13.7c4.7-0.7,9-2.2,12.9-4.5c5.6-3.3,10.1-7.7,13.3-13.2
	c3.2-5.5,4.9-11.6,4.9-18.2C431.4,318.8,429.7,312.6,426.3,307.1z"/>
</svg>
