<svg width="197" height="51" viewBox="0 0 197 51" fill="none" xmlns="http://www.w3.org/2000/svg">
<g clip-path="url(#clip0_563_637)">
<path fill-rule="evenodd" clip-rule="evenodd" d="M20.3704 33.6209L25.7954 20.3519L30.8983 33.6209H34.4083L27.6052 15.9297H24.0952L16.8604 33.6209H20.3704Z" fill="white"/>
<path fill-rule="evenodd" clip-rule="evenodd" d="M49.61 15.9336L48.2056 19.4722H41.891C41.6609 19.4722 41.4331 19.5186 41.2205 19.607C41.008 19.6954 40.8152 19.8257 40.6509 19.9914C40.4888 20.1549 40.3595 20.3514 40.2696 20.5657C40.1819 20.78 40.136 21.0097 40.136 21.2416C40.136 21.4736 40.1819 21.7033 40.2696 21.9175C40.3573 22.1318 40.4865 22.3262 40.6509 22.4919C40.813 22.6553 41.008 22.7856 41.2205 22.8762C41.4331 22.9646 41.6609 23.011 41.891 23.011H45.4011C46.0934 23.011 46.777 23.1458 47.4146 23.413C48.0544 23.6803 48.6328 24.0712 49.1236 24.5638C49.6122 25.0564 50 25.6417 50.2651 26.2867C50.5302 26.9296 50.6661 27.6209 50.6661 28.3168C50.6661 29.0126 50.5302 29.704 50.2651 30.3467C50 30.9918 49.6122 31.5749 49.1236 32.0697C48.635 32.5623 48.0544 32.9532 47.4146 33.2205C46.777 33.4878 46.0913 33.6248 45.4011 33.6248H37.6798L39.0843 30.0861H45.4011C45.6312 30.0861 45.859 30.0397 46.0715 29.9514C46.284 29.863 46.4768 29.7327 46.6412 29.567C46.8055 29.4014 46.9325 29.207 47.0224 28.9927C47.1101 28.7785 47.1561 28.5487 47.1561 28.3168C47.1561 28.0849 47.1101 27.8551 47.0224 27.6408C46.9347 27.4266 46.8055 27.2323 46.6412 27.0666C46.479 26.903 46.284 26.7728 46.0715 26.6822C45.859 26.5938 45.6311 26.5475 45.4011 26.5475H41.891C41.2008 26.5475 40.515 26.4105 39.8774 26.1432C39.2376 25.8759 38.6592 25.4849 38.1684 24.9923C37.6798 24.4998 37.2919 23.9144 37.0269 23.2694C36.7618 22.6266 36.626 21.9353 36.626 21.2394C36.626 20.5436 36.7618 19.8523 37.0269 19.2095C37.292 18.5667 37.6798 17.9813 38.1684 17.4887C38.6569 16.9961 39.2376 16.6052 39.8774 16.3379C40.515 16.0728 41.1986 15.9336 41.8888 15.9336L49.61 15.9336Z" fill="white"/>
<path fill-rule="evenodd" clip-rule="evenodd" d="M85.3242 19.4722H71.2862V15.9336H87.0792L85.3242 19.4722ZM87.0791 33.6247H71.2861V30.0861H85.3241L86.2004 31.8554L87.0766 33.6247H87.0791ZM71.2861 26.5496H85.3241V23.011H71.2861V26.5496Z" fill="white"/>
<path fill-rule="evenodd" clip-rule="evenodd" d="M11.1314 19.4722V26.5761C11.127 27.0312 11.0372 27.4818 10.8641 27.9037C10.6888 28.3322 10.4303 28.7232 10.1038 29.0523C9.7774 29.3815 9.39174 29.6421 8.96455 29.8188C8.53944 29.9955 8.08152 30.0883 7.62142 30.0883C7.16133 30.0883 6.70336 29.9955 6.27835 29.8188C5.85329 29.6421 5.4655 29.3815 5.13902 29.0523C4.81254 28.7232 4.55401 28.3344 4.37872 27.9037C4.20126 27.4751 4.11143 27.0135 4.11143 26.5496H0.603516C0.603516 27.4795 0.785388 28.3984 1.13814 29.2577C1.4909 30.117 2.00796 30.8968 2.65874 31.5528C3.30947 32.2088 4.0851 32.7302 4.93522 33.0858C5.78752 33.4414 6.699 33.6248 7.62142 33.6248C8.54385 33.6248 9.45533 33.4414 10.3076 33.0858C11.1599 32.7302 11.9334 32.2088 12.5841 31.5528C13.2348 30.8968 13.7518 30.1148 14.1046 29.2577C14.4574 28.3984 14.6393 27.4795 14.6393 26.5496V15.9336H4.11351L5.86853 19.4722H11.1314Z" fill="white"/>
<path d="M128.495 15.9336L123.145 29.3306L117.794 15.9336H114.002L121.061 33.6358H125.231L132.314 15.9336H128.495Z" fill="white"/>
<path d="M182.305 30.0888H173.162V15.9297H169.674V33.6209H183.708L182.305 30.0888Z" fill="white"/>
<path d="M161.107 33.0902C162.043 32.7434 162.832 32.2707 163.496 31.6257C164.159 31.005 164.653 30.2362 165.023 29.366C165.367 28.5222 165.54 27.579 165.54 26.5606V15.9336H162.019V26.5606C162.019 27.1814 161.92 27.7535 161.723 28.2483C161.526 28.7209 161.28 29.092 160.961 29.3903C160.641 29.7128 160.271 29.9359 159.828 30.1104C159.335 30.2849 158.794 30.3578 158.202 30.3578C157.61 30.3578 157.046 30.2827 156.576 30.1104C156.134 29.9359 155.74 29.7128 155.419 29.3903C155.1 29.0921 154.852 28.6945 154.657 28.2483C154.46 27.7512 154.361 27.1813 154.361 26.5606V15.9336H150.864V26.5606C150.864 27.579 151.037 28.5222 151.358 29.366C151.728 30.2341 152.245 31.005 152.885 31.6257C153.575 32.2707 154.361 32.7434 155.273 33.0902C156.185 33.4126 157.144 33.5872 158.204 33.5872C159.265 33.5872 160.225 33.4127 161.11 33.0902H161.107Z" fill="white"/>
<path d="M196.937 15.9336H181.644L183.048 19.4722H187.533V33.289H191.021V19.4722H196.935V15.9336H196.937Z" fill="white"/>
<path d="M67.594 19.2077C67.3289 18.5627 66.9411 17.9796 66.4524 17.487C65.9638 16.9944 65.3832 16.6034 64.7457 16.3361C64.1058 16.0667 63.4223 15.9297 62.7299 15.9297H53.957L55.3615 19.4683H62.7321C62.9622 19.4683 63.19 19.5147 63.4026 19.6031C63.6151 19.6915 63.8079 19.8218 63.9722 19.9875C64.1344 20.1509 64.2637 20.3475 64.3534 20.5618C64.4411 20.7761 64.4871 21.0058 64.4871 21.2377C64.4871 21.4697 64.4411 21.6994 64.3534 21.9136C64.2658 22.1279 64.1366 22.3245 63.9722 22.488C63.8101 22.6514 63.6151 22.7817 63.4026 22.8723C63.19 22.9607 62.9622 23.0071 62.7321 23.0071H53.9593V33.6209H57.4693V26.5458H62.7343C63.4245 26.5458 64.1102 26.4088 64.7479 26.1415C65.3877 25.8742 65.966 25.4833 66.4547 24.9907C66.9433 24.4981 67.3311 23.9127 67.5961 23.2678C67.8612 22.625 67.9971 21.9336 67.9971 21.2378C67.9971 20.542 67.8612 19.8506 67.5961 19.2078L67.594 19.2077Z" fill="white"/>
<path fill-rule="evenodd" clip-rule="evenodd" d="M99.9426 26.5208C100.451 26.4678 100.951 26.342 101.426 26.1432C102.066 25.8759 102.644 25.4849 103.133 24.9923C103.621 24.4997 104.009 23.9144 104.274 23.2694C104.54 22.6266 104.676 21.9352 104.676 21.2394C104.676 20.5436 104.54 19.8522 104.274 19.2094C104.009 18.5644 103.621 17.9812 103.133 17.4887C102.644 16.9961 102.064 16.6051 101.426 16.3378C100.786 16.0705 100.103 15.9336 99.41 15.9336H90.6377L92.0418 19.4722H99.4124C99.6425 19.4722 99.8703 19.5186 100.083 19.607C100.295 19.6954 100.488 19.8257 100.652 19.9914C100.815 20.1549 100.944 20.3514 101.034 20.5657C101.121 20.78 101.167 21.0097 101.167 21.2416C101.167 21.4736 101.121 21.7033 101.034 21.9175C100.946 22.1318 100.816 22.3262 100.652 22.4919C100.491 22.6553 100.295 22.7856 100.083 22.8762C99.8702 22.9646 99.6425 23.011 99.4124 23.011H90.6378V33.6226H94.1476V26.5475H96.461L101.167 33.6226H104.677L99.9709 26.5475L99.9451 26.521L99.9426 26.5208Z" fill="white"/>
<path d="M145.098 33.6319H148.891L141.833 15.9297H137.664L130.58 33.6319H134.399L135.817 30.0799H143.681L145.098 33.6319ZM137.228 26.5458L139.747 20.2349L142.268 26.5458H137.226H137.228Z" fill="white"/>
</g>
<defs>
<clipPath id="clip0_563_637">
<rect width="196.984" height="50" fill="white" transform="translate(0 0.59375)"/>
</clipPath>
</defs>
</svg>
