<?xml version="1.0" encoding="UTF-8"?>
<svg id="d" data-name="Layer 4" xmlns="http://www.w3.org/2000/svg" width="130" height="130" viewBox="0 0 130 130">
  <defs>
    <style>
      .h {
        fill: #12100f;
      }

      .h, .i {
        stroke-width: 0px;
      }

      .i {
        fill: #fff;
      }
    </style>
  </defs>
  <g id="e" data-name="Group 4615">
    <path id="f" data-name="Path 6851-2" class="i" d="m130,65c0,35.8985-29.1015,65-65,65S0,100.8985,0,65C0,29.1054,29.0954.0055,64.99,0c35.8985-.0055,65.0045,29.0915,65.01,64.99v.01"/>
    <path id="g" data-name="Path 6853" class="h" d="m71.3143,55.7955c6.2901-.9722,15.3857-7.6138,15.3857-12.7619-.0558-1.5192-1.3326-2.7056-2.8518-2.6498-.0824.003-.1646.0097-.2464.0202-3.4789.0059-9.3825,5.2652-12.2875,15.3915Zm-29.1315,25.6233c-8.1994,0-8.9023,8.1995-.6794,8.1995,3.8877.058,7.6424-1.4145,10.4543-4.0997-2.5935-2.5973-6.1046-4.0699-9.7749-4.0997Zm52.3593-3.5141c.4861,13.7341-6.4834,21.4298-18.2906,21.4298-6.9695,0-10.4543-2.6297-17.9041-7.5025-4.6053,4.6206-10.8035,7.3048-17.3243,7.5025-21.0023,0-20.1296-26.7888,1.2592-26.7888,4.6784.0442,9.2338,1.5041,13.0664,4.1876l3.1919-11.204c-13.1601-3.6019-19.7431-13.7341-13.2597-28.2529h10.4543c-5.804,9.6461-1.839,17.6347,5.5171,18.5073,3.9709-14.1265,12.4866-25.1313,23.8077-25.1313,6.0287-.291,11.1519,4.3603,11.4429,10.389.0225.4669.0151.9347-.0223,1.4006,0,12.1762-15.8718,22.1151-27.8723,23.0873l-4.9372,17.4355c5.6108,6.5244,21.1956,12.8848,21.1956-5.0661l9.6753.0059Z"/>
  </g>
</svg>