<?xml version="1.0" encoding="UTF-8"?>
<svg id="d" data-name="Layer 4" xmlns="http://www.w3.org/2000/svg" width="130" height="130" xmlns:xlink="http://www.w3.org/1999/xlink" viewBox="0 0 130 130">
  <defs>
    <style>
      .bx {
        fill: #e27525;
      }

      .bx, .by, .bz, .ca, .cb, .cc, .cd, .ce, .cf, .cg, .ch, .ci {
        stroke-width: 0px;
      }

      .cj {
        clip-path: url(#bi);
      }

      .ck {
        clip-path: url(#bm);
      }

      .cl {
        stroke: #e27625;
      }

      .cl, .bz, .cm, .cn, .co, .cp, .cq, .cr, .cs, .ct, .cu {
        fill: none;
      }

      .cl, .cm, .cn, .co, .cp, .cq, .cr, .cs, .ct, .cu {
        stroke-linecap: round;
        stroke-linejoin: round;
        stroke-width: .25px;
      }

      .by {
        fill: #e27625;
      }

      .ca {
        fill: #f5841f;
      }

      .cb {
        fill: #cc6228;
      }

      .cc {
        fill: #161616;
      }

      .cm {
        stroke: #161616;
      }

      .cd {
        fill: #e17726;
      }

      .ce {
        fill: #fff;
      }

      .cn {
        stroke: #e17726;
      }

      .co {
        stroke: #233447;
      }

      .cp {
        stroke: #763e1a;
      }

      .cv {
        clip-path: url(#o);
      }

      .cf {
        fill: #d5bfb2;
      }

      .cg {
        fill: #763e1a;
      }

      .cq {
        stroke: #e27525;
      }

      .cw {
        clip-path: url(#bc);
      }

      .cx {
        clip-path: url(#bs);
      }

      .ch {
        fill: #233447;
      }

      .cr {
        stroke: #c0ac9d;
      }

      .ci {
        fill: #c0ac9d;
      }

      .cs {
        stroke: #cc6228;
      }

      .ct {
        stroke: #d5bfb2;
      }

      .cu {
        stroke: #f5841f;
      }
    </style>
    <clipPath id="o">
      <rect class="bz" x="24.3703" y="29.7768" width="81.2246" height="75.1785"/>
    </clipPath>
    <clipPath id="bc">
      <rect class="bz" x="24.3703" y="29.7768" width="81.2246" height="75.1785"/>
    </clipPath>
    <clipPath id="bi">
      <rect class="bz" x="24.3703" y="29.7768" width="81.2246" height="75.1785"/>
    </clipPath>
    <clipPath id="bm">
      <rect class="bz" x="24.3703" y="29.7768" width="81.2246" height="75.1785"/>
    </clipPath>
    <clipPath id="bs">
      <rect class="bz" x="24.3703" y="29.7768" width="81.2246" height="75.1785"/>
    </clipPath>
  </defs>
  <g id="e" data-name="Group 4614">
    <path id="f" data-name="Path 6851" class="ce" d="m130,65c0,35.8985-29.1015,65-65,65S0,100.8985,0,65C0,29.1054,29.0954.0055,64.99,0c35.8985-.0055,65.0045,29.0915,65.01,64.99v.01"/>
    <g id="g" data-name="Group 4601">
      <path id="h" data-name="Path 6751" class="cd" d="m75.6632,39.6491l-5.87,13.7464,31.4845-23.3198-25.6145,9.5734Z"/>
      <path id="i" data-name="Path 6752" class="cn" d="m101.3097,30.0757l-31.4845,23.3198,5.87-13.7358,25.6145-9.5841Z"/>
      <path id="j" data-name="Path 6753" class="by" d="m59.8784,53.5983l-5.5818-13.9546-25.6412-9.5681,31.223,23.5226Z"/>
      <path id="k" data-name="Path 6754" class="cl" d="m28.6607,30.0757l31.223,23.5226-5.5818-13.9546-25.6412-9.5681Z"/>
      <path id="l" data-name="Path 6755" class="by" d="m81.5811,96.9135l17.9461,4.9308,5.1389-17.4659-14.7016-.2882-8.3834,12.8233Z"/>
      <path id="m" data-name="Path 6756" class="cl" d="m89.9645,84.1116l-8.3727,12.8072,17.9355,4.9308,5.1442-17.4659-14.707-.2721Z"/>
      <path id="n" data-name="Path 6757" class="by" d="m25.3255,84.389l5.1016,17.4552,17.9035-4.9415-8.3407-12.8072-14.6643.2935Z"/>
      <g class="cv">
        <g id="p" data-name="Group 4253">
          <path id="q" data-name="Path 6758" class="cl" d="m25.3309,84.389l5.1016,17.4552,17.9035-4.9415-8.3407-12.8072-14.6643.2935Z"/>
        </g>
      </g>
      <path id="r" data-name="Path 6759" class="by" d="m47.3805,62.4887l-4.9895,7.5082,17.7594.8111-.5763-19.1148-12.1936,10.7954Z"/>
      <path id="s" data-name="Path 6760" class="cl" d="m47.3805,62.4887l-4.9895,7.5082,17.7594.8111-.5763-19.1148-12.1936,10.7954Z"/>
      <path id="t" data-name="Path 6761" class="by" d="m82.5845,62.4833l-12.3643-10.9982-.4056,19.3283,17.7594-.8111-4.9895-7.5189Z"/>
      <path id="u" data-name="Path 6762" class="cl" d="m82.5845,62.4833l-12.3643-10.9982-.4056,19.3283,17.7594-.8111-4.9895-7.5189Z"/>
      <path id="v" data-name="Path 6763" class="by" d="m48.3517,96.9135l10.7474-5.1976-9.2426-7.2201-1.5048,12.4177Z"/>
      <path id="w" data-name="Path 6764" class="cl" d="m48.3517,96.9135l10.7474-5.1976-9.2426-7.2201-1.5048,12.4177Z"/>
      <path id="x" data-name="Path 6765" class="by" d="m70.8657,91.7265l10.7154,5.1976-1.4622-12.4017-9.2532,7.2041Z"/>
      <path id="y" data-name="Path 6766" class="cl" d="m70.8657,91.7265l10.7154,5.1976-1.4622-12.4017-9.2532,7.2041Z"/>
      <path id="z" data-name="Path 6767" class="cf" d="m81.5972,96.8921l-10.7154-5.1976.8645,6.9373-.0907,2.951,9.9416-4.6907Z"/>
      <path id="aa" data-name="Path 6768" class="ct" d="m81.5972,96.8921l-10.7154-5.1976.8645,6.9373-.0907,2.951,9.9416-4.6907Z"/>
      <path id="ab" data-name="Path 6769" class="cf" d="m48.3517,96.9135l9.9683,4.7227-.064-2.951.8378-6.9373-10.7421,5.1656Z"/>
      <path id="ac" data-name="Path 6770" class="ct" d="m48.3517,96.9135l9.9683,4.7227-.064-2.951.8378-6.9373-10.7421,5.1656Z"/>
      <path id="ad" data-name="Path 6771" class="ch" d="m58.4963,79.9119l-8.9064-2.5988,6.2916-2.887,2.6148,5.4858Z"/>
      <path id="ae" data-name="Path 6772" class="co" d="m58.4963,79.9119l-8.9064-2.5988,6.2916-2.887,2.6148,5.4858Z"/>
      <path id="af" data-name="Path 6773" class="ch" d="m71.4689,79.9172l2.6148-5.5018,6.3289,2.887-8.9437,2.6148Z"/>
      <path id="ag" data-name="Path 6774" class="co" d="m71.4689,79.9172l2.6148-5.5018,6.3289,2.887-8.9437,2.6148Z"/>
      <path id="ah" data-name="Path 6775" class="cb" d="m48.3465,96.9135l1.5582-12.8072-9.9096.2882,8.3514,12.5191Z"/>
      <path id="ai" data-name="Path 6776" class="cs" d="m48.3465,96.9135l1.5582-12.8072-9.9096.2882,8.3514,12.5191Z"/>
      <path id="aj" data-name="Path 6777" class="cb" d="m80.0605,84.1116l1.5262,12.8072,8.3727-12.5244-9.8989-.2828Z"/>
      <path id="ak" data-name="Path 6778" class="cs" d="m80.0605,84.1116l1.5262,12.8072,8.3727-12.5244-9.8989-.2828Z"/>
      <path id="al" data-name="Path 6779" class="cb" d="m87.5739,70.0022l-17.7594.8111,1.6543,9.1038,2.6148-5.5018,6.3236,2.887,7.1667-7.3001Z"/>
      <path id="am" data-name="Path 6780" class="cs" d="m87.5739,70.0022l-17.7594.8111,1.6543,9.1038,2.6148-5.5018,6.3236,2.887,7.1667-7.3001Z"/>
      <path id="an" data-name="Path 6781" class="cb" d="m49.5897,77.2917l6.2916-2.887,2.6148,5.5018,1.6543-9.1038-17.7594-.8111,7.1987,7.3001Z"/>
      <path id="ao" data-name="Path 6782" class="cs" d="m49.5897,77.2917l6.2916-2.887,2.6148,5.5018,1.6543-9.1038-17.7594-.8111,7.1987,7.3001Z"/>
      <path id="ap" data-name="Path 6783" class="bx" d="m42.3963,70.0022l7.4709,14.5095-.2508-7.2201-7.2201-7.2894Z"/>
      <path id="aq" data-name="Path 6784" class="cq" d="m42.3963,70.0022l7.4709,14.5095-.2508-7.2201-7.2201-7.2894Z"/>
      <path id="ar" data-name="Path 6785" class="bx" d="m80.4073,77.2917l-.2882,7.2201,7.4709-14.5095-7.1827,7.2894Z"/>
      <path id="as" data-name="Path 6786" class="cq" d="m80.4073,77.2917l-.2882,7.2201,7.4709-14.5095-7.1827,7.2894Z"/>
      <path id="at" data-name="Path 6787" class="bx" d="m60.1505,70.8134l-1.6543,9.1038,2.0865,10.7527.4696-14.168-.9018-5.6885Z"/>
      <path id="au" data-name="Path 6788" class="cq" d="m60.1505,70.8134l-1.6543,9.1038,2.0865,10.7527.4696-14.168-.9018-5.6885Z"/>
      <path id="av" data-name="Path 6789" class="bx" d="m69.8093,70.8134l-.8645,5.6565.4376,14.2,2.0865-10.7527-1.6596-9.1038Z"/>
      <path id="aw" data-name="Path 6790" class="cq" d="m69.8093,70.8134l-.8645,5.6565.4376,14.2,2.0865-10.7527-1.6596-9.1038Z"/>
      <path id="ax" data-name="Path 6791" class="ca" d="m71.458,79.9172l-2.0865,10.7527,1.4942,1.0673,9.2426-7.2201.2882-7.2201-8.9384,2.6202Z"/>
      <path id="ay" data-name="Path 6792" class="cu" d="m71.458,79.9172l-2.0865,10.7527,1.4942,1.0673,9.2426-7.2201.2882-7.2201-8.9384,2.6202Z"/>
      <path id="az" data-name="Path 6793" class="ca" d="m49.5952,77.3077l.2508,7.2201,9.2586,7.2201,1.4942-1.0673-2.0865-10.7741-8.917-2.5988Z"/>
      <path id="ba" data-name="Path 6794" class="cu" d="m49.5952,77.3077l.2508,7.2201,9.2586,7.2201,1.4942-1.0673-2.0865-10.7741-8.917-2.5988Z"/>
      <path id="bb" data-name="Path 6795" class="ci" d="m71.6502,101.6415l.0961-2.951-.8165-.6831h-11.9054l-.7791.6831.064,2.951-9.9576-4.7173,3.49,2.8603,7.0707,4.8774h12.1295l7.1027-4.8774,3.4633-2.8603-9.9576,4.7173Z"/>
      <g class="cw">
        <g id="bd" data-name="Group 4255">
          <path id="be" data-name="Path 6796" class="cr" d="m71.6504,101.6415l.0907-2.9563-.8111-.6831h-11.9054l-.7791.6831.064,2.951-9.9576-4.712,3.49,2.8603,7.0707,4.8774h12.1295l7.1027-4.8774,3.4419-2.8603-9.9363,4.7173Z"/>
        </g>
      </g>
      <path id="bf" data-name="Path 6797" class="cc" d="m70.882,91.7265l-1.4942-1.0673h-8.789l-1.4942,1.0673-.8378,6.9373.7791-.6831h11.9001l.8111.6831-.8752-6.9373Z"/>
      <path id="bg" data-name="Path 6798" class="cm" d="m70.882,91.7265l-1.4942-1.0673h-8.789l-1.4942,1.0673-.8378,6.9373.7791-.6831h11.9001l.8111.6831-.8752-6.9373Z"/>
      <path id="bh" data-name="Path 6799" class="cg" d="m70.8711,52.6057l11.74,9.8829,16.5427,4.8027,3.6394-4.2691-1.6009-1.1527,2.5241-2.3106-1.9318-1.4942,2.5241-1.9264-1.6329-1.254,2.6682-12.8659-4.0343-11.9427-30.4385,22.5301Z"/>
      <g class="cj">
        <g id="bj" data-name="Group 4257">
          <path id="bk" data-name="Path 6800" class="cp" d="m102.6599,54.9057l2.6682-12.8659-4.0236-11.9641-30.4172,22.5247,11.74,9.8829,16.5427,4.8027,3.6447-4.2691-1.6009-1.1527,2.5241-2.3106-1.9318-1.4942,2.5241-1.9264-1.6703-1.2274Z"/>
        </g>
      </g>
      <path id="bl" data-name="Path 6801" class="cg" d="m24.6745,42.0398l2.6682,12.8659-1.713,1.2754,2.5561,1.9264-1.9318,1.4942,2.5561,2.3053-1.6009,1.1527,3.6447,4.2691,16.5427-4.8027,11.7026-9.9043-30.4385-22.5461-3.9863,11.9641Z"/>
      <g class="ck">
        <g id="bn" data-name="Group 4259">
          <path id="bo" data-name="Path 6802" class="cp" d="m24.6692,42.0398l2.6682,12.8659-1.713,1.2754,2.5508,1.9264-1.9318,1.4942,2.5614,2.3053-1.6009,1.1527,3.6447,4.2691,16.5427-4.8347,11.7026-9.8883-30.4385-22.5301-3.9863,11.9641Z"/>
        </g>
      </g>
      <path id="bp" data-name="Path 6803" class="ca" d="m87.5739,70.0022l-7.4709,14.5095,9.8456-.1227h14.7283l-5.5445-17.0763-16.5427-4.8027,4.9842,7.4922Z"/>
      <path id="bq" data-name="Path 6804" class="cu" d="m99.1271,67.3021l-16.5427-4.8027,4.9842,7.5082-7.4389,14.5255,9.8456-.1227h14.7016l-5.5498-17.1083Z"/>
      <path id="br" data-name="Path 6805" class="ca" d="m30.8326,67.2967l-5.5071,17.0923h14.6696l9.8402.1227-7.4335-14.5095,4.9842-7.5082-16.5534,4.8027Z"/>
      <g class="cx">
        <g id="bt" data-name="Group 4261">
          <path id="bu" data-name="Path 6806" class="cu" d="m47.3807,62.4887l-16.5427,4.8027-5.5071,17.103h14.6643l9.8456.1227-7.4335-14.5095,4.9735-7.5189Z"/>
        </g>
      </g>
      <path id="bv" data-name="Path 6807" class="ca" d="m69.8145,70.808l1.0673-18.2183,4.8027-12.946h-21.3454l4.8027,12.946,1.0673,18.2076.4056,5.7152.032,14.1467h8.7036l.032-14.1467.4322-5.7046Z"/>
      <path id="bw" data-name="Path 6808" class="cu" d="m69.8145,70.808l1.0673-18.2183,4.8027-12.946h-21.3454l4.8027,12.946,1.0673,18.2076.4056,5.7152.032,14.1467h8.7036l.032-14.1467.4322-5.7046Z"/>
    </g>
  </g>
</svg>
