<svg width="463" height="96" viewBox="0 0 463 96" fill="none" xmlns="http://www.w3.org/2000/svg">
<path d="M88 31.7533C88 18.1487 77.3022 10 61.5995 10H32V85H43.8845V53.6116H61.5995C77.3022 53.6116 88 45.3754 88 31.7708V31.7533ZM61.5995 43.4344H43.8845V20.1772H61.5995C70.7666 20.1772 75.8575 24.7937 75.8575 31.7533C75.8575 38.713 70.7494 43.4344 61.5995 43.4344Z" fill="white"/>
<path d="M113.296 10L83 85H95.9488L99.3582 76.2567L120.857 20.8242H124.125V20.9291L134.883 48.5754H119.709L115.822 58.7351L138.788 58.7526L149.051 85H162L131.704 10H113.261H113.296Z" fill="white"/>
<path d="M286 20.1772V10H158V20.1772H184.449V85H196.595V20.1772H222.658V85H234.786V20.1772" fill="white"/>
<path d="M356.983 30.7916C356.983 16.4351 346.692 10 329.034 10H300V85H312.111V51.5656H317.431L341.634 85H357L331.099 51.5656C346.465 51.0235 357 44.4836 357 30.7741L356.983 30.7916ZM330.486 41.9305H312.093V20.1947H330.486C338.834 20.1947 344.399 23.6221 344.399 31.0189C344.399 38.4157 338.834 41.9305 330.486 41.9305Z" fill="white"/>
<path d="M417.848 10.0175V72.9021L412.871 64.7378L383.081 10H364V84.9825H376.152V21.1888L381.129 30.2622L410.919 85H430V10.0175H417.848Z" fill="white"/>
<path d="M286 76H261V85H286V76Z" fill="white"/>
<path d="M286 43H261V52H286V43Z" fill="white"/>
</svg>
