<?xml version="1.0" encoding="UTF-8"?>
<svg id="Layer_4" xmlns="http://www.w3.org/2000/svg" viewBox="0 0 380.06 96.47">
  <defs>
    <style>
      .cls-1 {
        fill: #fff;
      }
    </style>
  </defs>
  <g id="_x39_HfLI1.tif">
    <g>
      <path class="cls-1" d="M93.72,43.08c-.9,3.1-1.85,6-2.56,9.07-3.02-.77-5.95-1.52-8.99-2.3-.56,1.44-.79,2.98-1.26,4.44-.46,1.44-.7,2.93-1.26,4.46,2.96.85,5.86,1.62,8.71,2.34.4-.24.49-.59.58-.9.29-1.04.48-2.12.84-3.14.33-.96.51-1.95.84-2.91.22-.63.2-1.34.73-1.91,2.88.76,5.78,1.54,8.7,2.31.04.57,0,1.05-.14,1.56-.32,1.1-.67,2.19-.9,3.32-.2.99-.5,1.96-.82,2.91-.12.36-.12.73-.25,1.08-.27.25-.61.2-.87.11-.99-.35-2.02-.52-3.02-.85-.85-.29-1.75-.51-2.64-.7-.85-.19-1.66-.55-2.68-.62-.8,2.94-1.61,5.92-2.42,8.92-.58.02-1.03-.03-1.49-.17-2.27-.68-4.6-1.14-6.85-1.88-.26-.08-.53-.1-.77.05-.76,2.87-1.52,5.72-2.3,8.68,3.03.82,5.97,1.62,9.03,2.45-.78,3.14-1.59,6.19-2.51,9.29-3.13-.83-6.14-1.64-9.27-2.48.81-3.06,1.61-6.03,2.42-9.07-3.01-.75-5.85-1.67-8.85-2.3-1,2.99-1.52,6.02-2.57,8.96-3.1-.82-6.08-1.6-9.04-2.38-.83,3.1-1.63,6.08-2.44,9.07-3.12-.83-6.12-1.63-9.15-2.44-.07-.51.03-.92.19-1.39.3-.85.49-1.75.72-2.63.32-1.23.63-2.48.99-3.7.13-.43,0-.9.4-1.33-3.06-.99-6.1-1.67-9.07-2.55.16-1.19.53-2.16.78-3.17.26-1.01.65-2.01.8-3.03.14-.99.93-1.9.54-2.95-2.96-.72-5.76-1.56-8.66-2.27-.82,3.04-1.61,5.96-2.41,8.94-1.7-.14-3.2-.79-4.75-1.16-1.53-.36-3.09-.66-4.57-1.33.84-3.09,1.65-6.11,2.48-9.18,3.09.74,6.03,1.68,9.09,2.33.33-1.57.9-2.96,1.18-4.46.27-1.44.99-2.78,1.03-4.33-2.91-1-5.91-1.52-8.85-2.53.69-3.08,1.67-6,2.32-9.05-3.02-.81-5.91-1.59-8.9-2.4.11-1.56.7-3.03,1.06-4.55.37-1.54.82-3.06,1.22-4.55.29-.22.59-.19.82-.09,1.42.64,2.98.82,4.46,1.28,1.2.38,2.46.73,3.78.9.64-1.18.77-2.53,1.15-3.8.44-1.49.82-2.99,1.22-4.49.05-.17.11-.32.29-.48.87-.21,1.68.27,2.51.47,1.84.45,3.65.99,5.47,1.49.3.08.6.12,1.02-.03.79-2.79,1.6-5.65,2.31-8.63-3.03-.82-5.97-1.62-8.82-2.39-.16-.39-.14-.63-.06-.85.95-2.73,1.39-5.61,2.4-8.42,3.17.7,6.16,1.61,9.23,2.41-.81,3.06-1.59,6.01-2.38,9.03,2.97.88,5.86,1.63,8.85,2.4.94-2.96,1.53-6,2.52-8.99.89.33,1.75.44,2.6.68.87.25,1.75.49,2.63.71.91.23,1.84.37,2.71.76.37.16.79.1,1.17.06.8-2.96,1.59-5.87,2.39-8.84,3.15.68,6.1,1.61,9.15,2.36.06.46,0,.85-.13,1.29-.34,1.06-.57,2.15-.86,3.22-.16.61-.34,1.22-.5,1.83-.22.88-.49,1.75-.69,2.67.51.33,1.07.48,1.68.6.72.14,1.43.37,2.15.56,1.33.36,2.66.69,3.99,1.06.38.11.8.19,1.18.54-.75,2.79-1.52,5.61-2.27,8.44-.04.15-.02.34.11.52,2.85.64,5.65,1.61,8.67,2.23.82-3,1.62-5.94,2.45-8.99,3.13.84,6.18,1.67,9.32,2.51-.84,3.13-1.65,6.14-2.48,9.22-3.1-.63-6.03-1.59-9.09-2.33-.84,2.93-1.59,5.81-2.37,8.78,3,1.07,6.05,1.55,9.05,2.59ZM57.97,65.6c.8-1.65.79-3.47,1.53-4.98.94-.05,1.74.1,2.55.18,1.11.12,2.23,0,3.35-.15,1.5-.2,2.68-.9,3.62-2.01,1.26-1.47,1.73-3.27,1.85-5.15.08-1.33-.36-2.52-1.33-3.5-.5-.5-1.09-.89-1.67-1.34.21-.12.38-.23.57-.31,1.06-.48,1.89-1.18,2.4-2.25.36-.76.74-1.5.67-2.38-.03-.37-.02-.75,0-1.13.04-.81-.33-1.49-.7-2.16-.8-1.44-2.19-2.15-3.59-2.87-.61-.31-1.41-.29-1.75-.83,0-1.76.93-3.21.93-4.81-.79-.65-2.21-.99-3.13-.79-.4,1.53-.8,3.06-1.2,4.56-.69.16-1.25-.2-1.86-.25-.34-.03-.46-.39-.38-.73.25-.95.48-1.9.79-2.83.17-.5.26-.97.12-1.58-.96-.25-1.87-.78-2.96-.67-.62,1.59-.85,3.19-1.33,4.89-2.01-.29-3.93-.99-5.92-1.4-.58.58-1.03,2-1.05,3.29,1.03.65,2.52.31,3.34,1.39.31,1.41-.18,2.66-.49,3.93-.3,1.21-.56,2.43-.88,3.63-.27,1.01-.53,2.02-.74,3.05-.22,1.08-.64,2.13-.86,3.21-.11.58-.21,1.13-.57,1.65-1.08.45-2.14-.17-3.19-.18-.39.39-1.28,2.15-1.53,2.97-.06.21-.05.4.1.57,1.87.67,3.86.92,5.81,1.66-.13,1.72-.91,3.3-1.07,5.08,1.01.32,1.95.62,2.95.74.96-1.53.71-3.41,1.61-4.85.8-.22,1.33.34,2.07.45-.24,1.7-.68,3.29-1.1,4.94.86.68,1.97.45,3.04.96ZM36.31,37.62c-3.02-.82-5.94-1.62-8.96-2.45-.8,3.05-1.58,6.01-2.37,9,2.97.78,5.9,1.55,8.92,2.35.81-3.01,1.6-5.89,2.41-8.9ZM59.69,24.16c3.06.81,5.94,1.58,8.89,2.36.9-2.93,1.6-5.83,2.42-8.84-2.92-.95-5.89-1.56-8.91-2.48-.79,2.94-1.64,5.86-2.4,8.96ZM56.31,72.29c-3-.88-5.88-1.64-8.89-2.35-.92,2.91-1.53,5.81-2.43,8.76,2.96.95,5.92,1.57,8.97,2.51.76-2.96,1.59-5.82,2.35-8.93Z"/>
      <path class="cls-1" d="M146.81,29.19v15.82h-5.85v-21.56c.93-.23,4.64-.21,5.49.04.04.68.08,1.38.12,2.09.35.04.51-.15.69-.36,2.1-2.37,5.69-3.04,8.62-1.78.95.41,1.71,1.12,2.26,2,.17.27.31.51.66.67.66-.64,1.19-1.44,1.98-1.99,2.83-1.93,6.96-1.73,9.18.71.58.64,1.04,1.35,1.32,2.15.36,1.02.68,2.06.68,3.18-.01,4.78,0,9.55,0,14.33,0,.13-.03.27-.04.4-.71.21-4.07.27-5.7.1-.25-.33-.14-.72-.14-1.08,0-3.96,0-7.91,0-11.87,0-.89-.08-1.76-.33-2.62-.31-1.06-1.02-1.67-2.09-1.83-1.46-.22-2.77.07-3.78,1.24-.3.34-.51.69-.51,1.18.03,4.09.04,8.19.05,12.28,0,.88,0,1.76,0,2.62-1,.23-5.06.22-5.87,0-.22-.34-.11-.72-.11-1.09,0-3.92,0-7.85-.01-11.77,0-.92,0-1.84-.33-2.72-.4-1.07-1.13-1.64-2.27-1.76-1.56-.16-2.89.22-4.03,1.63Z"/>
      <path class="cls-1" d="M255.83,29.84c1.52.53,2.74,1.26,3.59,2.54.68,1.01,1.06,2.11,1.11,3.32.02.51,0,1.02,0,1.53-.02,3.27-1.95,5.7-4.63,6.79-1.74.7-3.54,1.07-5.43,1.06-3.69-.02-7.38,0-11.07,0-.2,0-.4-.02-.6-.03-.22-.73-.28-27.78-.08-29.11.17-.16.38-.11.58-.1,3.93,0,7.86-.12,11.78.06,2.6.12,5.06,1,6.84,3.06,1.02,1.18,1.51,2.61,1.59,4.19.07,1.42-.11,2.76-.85,4-.53.89-1.22,1.64-2.14,2.13-.25.13-.44.31-.71.57ZM244.63,40.52c2.55,0,4.99.25,7.39-.39.31-.08.62-.21.93-.39,1.8-1.06,1.97-3.1,1.47-4.96-.44-1.66-1.73-2.6-3.68-2.59-1.84,0-3.68-.01-5.52-.01-.2,0-.41-.05-.59.18v8.17ZM244.65,20.55v7.33c1.81,0,3.54.06,5.27-.02,1.65-.07,2.92-.82,3.48-2.48.53-1.55-.04-3.52-1.56-4.31-.89-.46-1.83-.72-2.83-.73-1.16,0-2.32,0-3.48,0-.27,0-.55-.07-.89.2Z"/>
      <path class="cls-1" d="M136.74,24.37h-5.62c-.16-.62-.15-1.22-.43-1.79-.78-1.59-2.03-2.42-3.74-2.57-.71-.07-1.44-.07-2.15,0-1.34.14-2.49.65-3.22,1.87-.8,1.34-.58,2.92.61,3.83,1.16.88,2.5,1.36,3.84,1.84,1.59.57,3.25.95,4.79,1.66,1.83.84,3.57,1.81,4.79,3.48,1.15,1.58,1.5,3.37,1.36,5.3-.11,1.55-.61,2.89-1.62,4.08-1.36,1.6-3.14,2.43-5.11,2.97-1.8.5-3.65.53-5.48.38-3.02-.24-5.77-1.22-8.04-3.31-1.63-1.49-2.28-3.41-2.41-5.55-.01-.21.09-.39.25-.62h5.53c.24.22.19.47.2.7.05,2.15,1.53,3.41,3.24,3.94,1.2.37,2.42.4,3.64.31.91-.06,1.8-.35,2.56-.91,2-1.47,1.64-4.38-.32-5.59-.69-.43-1.42-.78-2.18-1.06-1.59-.59-3.23-.98-4.81-1.62-1.74-.7-3.41-1.49-4.87-2.7-1.82-1.51-2.49-3.49-2.42-5.79.07-2.6,1.36-4.5,3.47-5.89,1.82-1.2,3.82-1.82,6.02-1.92,1.06-.05,2.1-.04,3.15.04,3.34.25,6.06,1.66,7.95,4.46.79,1.17,1.21,2.5,1.17,3.94,0,.1,0,.21-.03.3-.02.06-.07.12-.12.2Z"/>
      <path class="cls-1" d="M194.87,45.04h-5.59c-.57-.83-.77-1.78-.87-2.75-.37,0-.49.26-.65.47-.96,1.31-2.26,2.18-3.81,2.59-1.02.27-2.12.22-3.16.04-1.63-.27-3.13-.89-4.19-2.28-.73-.97-1.22-2.03-1.27-3.25-.02-.37,0-.75-.02-1.13-.17-2.81,1.8-4.79,3.88-5.65,1.92-.79,3.94-.99,5.99-1.01.92,0,1.83,0,2.86,0,.09-1,.19-1.95-.05-2.87-.27-1.08-1.38-1.88-2.5-1.95-.54-.03-1.09-.08-1.62.11-.89.31-1.57.8-1.71,1.82-.03.2-.14.38-.23.6-.63.16-1.28.06-1.92.07-.96.02-1.91,0-2.87,0-.41,0-.74-.09-.94-.55.25-2.75,1.89-4.48,4.36-5.55,2.88-1.24,5.84-1.27,8.77-.29,1.73.58,3.2,1.65,4.03,3.39.38.8.65,1.61.72,2.51.25,3.27.08,6.54.12,9.81.02,1.81.1,3.6.82,5.29.07.16,0,.34-.17.55ZM188.06,35.53c-1.29,0-2.49-.07-3.67.02-1.29.09-2.35.66-2.91,1.91-.48,1.07-.27,2.57.86,3.21.76.43,1.52.34,2.28.3,1.45-.08,2.53-.89,3.38-2.01.08-.1.15-.25.15-.37,0-.98.1-1.96-.08-3.06Z"/>
      <path class="cls-1" d="M363.96,45.03h-5.77c0-.41,0-.78,0-1.15,0-4.23-.02-8.46.02-12.69,0-.78-.22-1.48-.5-2.16-.23-.56-.7-.94-1.32-1.19-1.93-.79-4.19-.13-5.39,1.65v15.43c-.79.2-4.71.23-5.88.05v-21.65c1.84-.18,3.65-.05,5.44-.1.39.89.42,1.7.42,2.57.45-.1.64-.44.88-.69,1.59-1.61,3.51-2.41,5.78-2.29,2.14.11,3.96.95,5.19,2.75.75,1.1,1.1,2.37,1.26,3.7.27,2.21.16,4.42.17,6.63.02,2.63,0,5.25,0,7.88,0,.44.07.89-.3,1.27Z"/>
      <path class="cls-1" d="M310.19,33.89c-.17-1.66.15-3.49.91-5.15,1.17-2.58,2.97-4.57,5.85-5.39,1.29-.37,2.58-.6,3.9-.55,4.24.15,7.33,2.12,9,6.02.93,2.16,1.18,4.48.89,6.87-.18,1.46-.42,2.87-1.05,4.21-1.29,2.73-3.28,4.51-6.29,5.26-1.57.39-3.12.39-4.65.26-1.65-.14-3.23-.75-4.56-1.81-1.48-1.18-2.55-2.62-3.21-4.44-.61-1.67-.82-3.33-.78-5.28ZM324.77,34.3c.11-1.95-.21-3.68-1.2-5.27-1.2-1.94-4.3-1.91-5.5-.77-.9.85-1.36,1.88-1.65,3.07-.42,1.69-.35,3.37-.14,5.05.1.79.32,1.57.66,2.31.79,1.73,2.41,2.34,3.79,2.22,1.59-.13,2.86-.99,3.41-2.64.44-1.33.8-2.66.63-3.97Z"/>
      <path class="cls-1" d="M307.82,31.31h-5.27c-.27-.23-.29-.56-.34-.9-.26-1.73-1.32-2.75-3.04-2.9-1.44-.12-2.94.47-3.61,2.23-.71,1.85-.87,3.74-.63,5.69.1.77,0,1.55.27,2.32.18.52.37,1.02.65,1.48,1.25,2.06,4.53,2.1,5.88.32.26-.34.38-.72.47-1.11.06-.3.12-.59.36-.92.83,0,1.71,0,2.6,0s1.76,0,2.71,0c.11,1.67-.32,3.09-1.2,4.36-1.02,1.47-2.48,2.42-4.11,3.05-1.2.47-2.48.57-3.79.57-2.02,0-3.89-.45-5.58-1.55-1.21-.78-2.15-1.83-2.89-3.09-.64-1.1-1.06-2.28-1.27-3.5-.28-1.56-.49-3.13-.2-4.74.16-.89.18-1.8.46-2.69,1-3.18,2.79-5.56,6.13-6.59,1.33-.41,2.64-.61,4.01-.54,2.8.13,5.22,1.1,6.99,3.36.69.89,1.12,1.91,1.28,3.03.09.67.34,1.32.11,2.12Z"/>
      <path class="cls-1" d="M155.56,79.49c-.31.34-.16.91-.54,1.33h-3.58c-.19-.73-.26-21.61-.09-23.26.76-.2,3.39-.21,4.41,0v8.18c.28.16.41.03.52-.09,1.45-1.52,3.28-1.52,5.13-1.16,1.68.33,2.78,1.48,3.56,2.95.68,1.28,1.01,2.66,1.11,4.1.13,1.98.12,3.95-.65,5.83-.57,1.37-1.35,2.57-2.76,3.27-1.95.97-4.94,1.01-6.58-.83-.13-.14-.23-.34-.54-.31ZM155.8,76.25c.07.1.12.19.17.27.83,1.18,2.04,1.45,3.35,1.23,1.16-.2,1.73-1.07,2.05-2.17.34-1.18.18-2.37.22-3.55.03-.97-.22-1.89-.62-2.77-.4-.87-1.05-1.39-2.03-1.47-1.39-.12-2.46.37-3.14,1.61v6.85Z"/>
      <path class="cls-1" d="M220.53,23.22c1.31.19,2.48-.08,3.63.2v3.92c-1.16.37-2.39-.11-3.51.29-.16.29-.1.57-.1.84,0,3.34,0,6.69,0,10.03,0,.24-.01.48.02.72.11.82.65,1.31,1.47,1.45.62.11,1.22-.14,1.88-.03.33,1.31.4,2.67.56,4.11-.68.36-1.4.63-2.17.67-.89.05-1.79.12-2.66,0-1.99-.29-3.73-1.16-4.61-3.49-.34-.89-.4-1.79-.4-2.71,0-3.51,0-7.03,0-10.54,0-.34.07-.68-.1-1.06-.99-.35-2.08.04-3.11-.24-.29-.63-.12-1.29-.15-1.92-.03-.61,0-1.23,0-1.86.44-.48,1.02-.25,1.54-.29.54-.04,1.09.05,1.75-.1.21-1.7-.03-3.43.14-5.21h5.83v5.23Z"/>
      <path class="cls-1" d="M282.52,23.09c1.31.33,2.5-.15,3.64.37v3.92c-1.15.25-2.32-.05-3.39.16-.29.21-.26.46-.26.69,0,3.38,0,6.76,0,10.13,0,.34.04.67.15,1,.3.9.69,1.23,1.61,1.26.51.02,1.02,0,1.59,0,.55.58.34,1.4.44,2.1.1.68.44,1.37.18,2.19-.8.1-1.54.56-2.4.54-.58,0-1.16.03-1.74,0-2.08-.08-3.83-.8-4.9-2.71-.48-.86-.83-1.77-.83-2.78,0-3.75,0-7.51-.01-11.26,0-.37.07-.75-.09-1.17-.97-.22-2,.07-3.01-.16-.06-.14-.16-.26-.16-.38-.01-1.16,0-2.31,0-3.51,1-.58,2.1-.1,3.24-.37.08-1.67-.03-3.39.06-5.17h5.9v5.13Z"/>
      <path class="cls-1" d="M143.54,71.09c.25-.87,0-1.68-.29-2.41-.35-.87-1.38-1.2-2.34-1.08-1.11.14-1.35.4-2.13,1.95-1.34-.09-2.75.12-4.14-.14-.04-2.6,1.94-4.17,4.09-4.78,1.76-.5,3.57-.52,5.35-.01,1.72.49,3.08,1.49,3.69,3.22.28.82.43,1.7.42,2.6-.02,1.98,0,3.96,0,5.93,0,1.46.06,2.92.62,4.35-.78.26-1.53.1-2.26.13-.71.03-1.43,0-2.12,0-.47-.61-.63-1.26-.71-2.05-.41.42-.74.77-1.09,1.11-1.57,1.51-3.4,1.6-5.39,1.05-1.42-.39-2.47-1.21-2.94-2.57-.92-2.64-.28-5.45,2.83-6.55,1.3-.46,2.63-.65,4-.67.81,0,1.63.12,2.43-.11ZM143.58,73.86c-1.12-.08-2.19-.09-3.27.06-.8.11-1.3.57-1.67,1.19-.61,1.05-.12,2.47.92,2.68,1.3.26,2.49.02,3.48-.93.35-.34.62-.75.64-1.23.02-.54.08-1.08-.09-1.77Z"/>
      <path class="cls-1" d="M204.4,25.92c1.94-2.83,3.77-3.62,6.22-2.71-.17,1.64-.34,3.31-.52,4.98-.77.18-1.45.12-2.12.08-.82-.04-1.56.22-2.23.62-.86.51-1.38,1.24-1.37,2.33.02,4.19.01,8.39,0,12.58,0,.37.06.75-.08,1.11-.71.19-4.22.24-5.68.08-.2-.71-.27-20.07-.06-21.62.84-.16,1.72-.05,2.59-.07.88-.02,1.77,0,2.7,0,.32.81.36,1.66.54,2.62Z"/>
      <path class="cls-1" d="M168.06,75.74h3.86c.26.17.36.35.38.56.07,1.03.81,1.49,1.64,1.71.88.23,1.81.28,2.68-.21,1.01-.57,1.14-1.78.23-2.51-.71-.57-1.58-.73-2.44-.94-1.35-.32-2.65-.71-3.91-1.35-2.41-1.23-2.69-4.61-1.07-6.5.97-1.14,2.2-1.85,3.65-2.05,1.93-.27,3.85-.25,5.71.57,1.8.8,2.99,2.51,2.9,4.41-.66.3-1.39.1-2.08.14-.68.03-1.36,0-1.94,0-.33-.19-.38-.41-.45-.65-.26-.9-.84-1.36-1.76-1.41-.41-.02-.82-.03-1.23.03-.74.1-1.33.69-1.46,1.39-.12.65.24,1.21.95,1.63.73.43,1.55.46,2.33.65,1.25.31,2.48.67,3.64,1.27,2.57,1.32,2.94,4.78,1.1,6.69-.84.87-1.85,1.39-3.03,1.76-1.42.46-2.84.41-4.24.28-2.01-.18-3.69-1.16-4.84-2.86-.49-.72-.82-1.56-.61-2.61Z"/>
      <path class="cls-1" d="M118.55,58.92c1.32-.02,2.67,0,3.99,0,.51.19.53.57.53,1.01-.01,5.39-.01,10.78-.01,16.17,0,.37-.07.75.09,1.12.32.28.71.15,1.07.15,2.46.01,4.92,0,7.38,0,.37,0,.75-.1,1.07.2v3.12c-.77.21-12.99.26-14.12.07-.2-.7-.23-20.76,0-21.85Z"/>
      <path class="cls-1" d="M340.38,45.03h-5.65c-.18-.8-.22-20.33-.06-21.56.18-.28.46-.25.73-.25,1.4,0,2.8,0,4.2,0,.91,0,1.07.16,1.07,1.07,0,4.5,0,9,0,13.5,0,2.01,0,4.02,0,6.03,0,.4.05.82-.29,1.2Z"/>
      <path class="cls-1" d="M270.65,45.05h-5.62c-.22-.74-.27-20.56-.06-21.63.68-.24,4.62-.28,5.65-.07.03.02.05.04.08.07.02.03.05.06.05.09.13,6.95.02,13.9.05,20.86,0,.2.04.41-.15.69Z"/>
      <path class="cls-1" d="M189.24,80.48v-9.48c1.27-.19,8.68-.15,9.41.04.17.16.15.37.15.57,0,2.63,0,5.25,0,7.88,0,.74-.19.98-.85.98-2.86.01-5.73,0-8.71,0Z"/>
      <path class="cls-1" d="M264.86,13.6c1.98,0,3.75,0,5.52,0,.09,0,.18.08.32.15.21.71.07,1.46.09,2.2.03.71,0,1.42,0,2.2-.99.18-1.94.07-2.87.09-.95.02-1.91,0-2.99,0-.35-1.53-.25-3.04-.07-4.64Z"/>
      <path class="cls-1" d="M334.7,13.8c.2-.25.49-.21.76-.21,1.4,0,2.8,0,4.19,0,.83,0,1.01.19,1.02,1.02.01.89,0,1.77,0,2.66,0,.32-.05.61-.27.9h-5.61c-.25-.75-.29-3.33-.09-4.37Z"/>
      <path class="cls-1" d="M64.15,54.51c-.78,1.18-1.83,1.73-3.2,1.66-.34-.02-.68-.01-1.02,0-1.69.06-3.25-.49-4.75-.89-.26-.22-.31-.44-.24-.63.57-1.62.72-3.36,1.28-4.98.11-.31.13-.66.19-1.02.83-.32,1.63.07,2.36.27,1.19.32,2.41.66,3.48,1.32.99.62,1.88,1.34,2.07,2.6.09.59-.19,1.13-.17,1.67Z"/>
      <path class="cls-1" d="M57.38,45.31c.26-2.06.93-3.99,1.33-5.91.29-.33.64-.29.91-.21,1.58.45,3.16.84,4.59,1.78,1.4.93,1.5,4.01-.44,4.76-.89.34-1.79.48-2.7.34-1.2-.18-2.37-.48-3.69-.76Z"/>
    </g>
  </g>
</svg>
