<?xml version="1.0" encoding="UTF-8"?>
<svg id="c" data-name="Layer 4" xmlns="http://www.w3.org/2000/svg" width="380.0561" height="96.4689" viewBox="0 0 380.0561 96.4689">
  <defs>
    <style>
      .d {
        fill: #fff;
        stroke-width: 0px;
      }
    </style>
  </defs>
  <g>
    <path class="d" d="M38.1386,61.0656c.0855-3.0012-2.3447-6.0186-5.9993-6.0541-3.3025-.0321-6.0328,2.676-6.0504,5.9612-.0179,3.322,2.6857,6.0473,6.0134,6.0615,3.3083.0142,6.0276-2.6747,6.0363-5.9686ZM59.8987,72.8054c-3.2258-.019-5.8821,2.6002-5.9046,5.822-.0228,3.2697,2.5753,5.9149,5.8374,5.9433,3.2691.0285,5.9294-2.5681,5.9636-5.8207.0344-3.2752-2.5941-5.9251-5.8964-5.9446ZM67.5297,59.5951c2.6548.0754,5.1843-2.1892,5.1521-5.1761-.0306-2.8444-2.3054-5.116-5.1635-5.1171-2.8857-.0011-5.1724,2.286-5.1802,5.1566-.0082,3.0067,2.5524,5.235,5.1916,5.1366ZM44.5442,78.3417c-.0027-2.8441-2.3044-5.1321-5.1572-5.1265-2.8409.0056-5.1528,2.3179-5.1486,5.1495.0042,2.8315,2.321,5.1253,5.1716,5.1204,2.8582-.005,5.1369-2.2878,5.1342-5.1435ZM57.0644,38.3022c2.3302-.0111,4.1873-1.8771,4.1692-4.1892-.0179-2.2838-1.8901-4.1249-4.1866-4.1171-2.3307.0079-4.1698,1.8597-4.1614,4.1901.0082,2.2829,1.8806,4.1272,4.1789,4.1163ZM68.8443,63.5108c-.099,2.0184,1.6595,4.0911,4.0582,4.0952,2.2981.0039,4.1066-1.797,4.1326-4.0898.026-2.2943-1.9455-4.108-4.1273-4.0943-2.2352.0141-4.1463,1.9193-4.0635,4.0888ZM31.7033,53.4293c2.1867-.0077,3.9947-1.8143,3.9562-3.996-.0455-2.5804-2.229-3.9552-4.0151-3.9451-1.7207.0098-3.9435,1.3466-3.9572,4.003-.0113,2.1895,1.8139,3.9458,4.0161,3.9381ZM38.0882,39.9171c-1.9904-.0929-3.7908,1.6552-3.7627,3.7298.0278,2.0564,1.6682,3.7247,3.7288,3.7351,2.0744.0105,3.7652-1.6769,3.7644-3.7567-.0009-2.2799-1.9706-3.7987-3.7305-3.7081ZM46.5301,83.6965c.0036,2.004,1.6602,3.6505,3.6676,3.6454,2.0144-.0052,3.6605-1.6485,3.6609-3.6546.0004-2.0017-1.6577-3.6466-3.6707-3.6415-2.0204.0051-3.6614,1.643-3.6578,3.6508ZM70.3301,70.6466c-.0062-1.9317-1.5505-3.4715-3.4794-3.4691-1.9278.0024-3.4761,1.548-3.4795,3.4734-.0034,1.9513,1.5695,3.5274,3.5112,3.4963,2.1594-.0346,3.5346-1.8526,3.4477-3.5006ZM40.3646,34.0088c-.0019,1.8366,1.4911,3.3353,3.3289,3.3417,1.8308.0063,3.3493-1.4906,3.3654-3.3174.0163-1.8526-1.5-3.365-3.3691-3.3604-1.846.0045-3.3232,1.4866-3.3251,3.3362ZM62.8241,37.2176c-1.8442.0094-3.3379,1.5005-3.3385,3.3328-.0007,1.8316,1.4959,3.329,3.3358,3.3376,1.869.0087,3.3657-1.4901,3.358-3.3628-.0076-1.8376-1.5082-3.3169-3.3553-3.3076ZM34.0223,71.0234c.013-1.8601-1.4493-3.3434-3.3069-3.3544-1.8462-.0109-3.3427,1.4764-3.345,3.3245-.0023,1.8306,1.4576,3.3025,3.2869,3.3137,1.8824.0116,3.352-1.4226,3.365-3.2839ZM37.8532,72.433c1.7.0093,3.0683-1.3285,3.0825-3.0138.0145-1.7196-1.3424-3.0801-3.0699-3.0781-1.6941.0019-3.0575,1.3548-3.0615,3.0377-.0039,1.6803,1.3583,3.0449,3.0489,3.0542ZM71.7676,45.4595c-.0083-1.5981-1.3155-2.9059-2.9199-2.9211-1.611-.0153-2.9705,1.3261-2.9732,2.9336-.0027,1.6187,1.3272,2.94,2.9576,2.9387,1.631-.0013,2.9439-1.3212,2.9354-2.9511ZM45.7267,24.9383c-.0111,1.61,1.239,2.8734,2.8455,2.8759,1.5626.0024,2.8471-1.2739,2.8499-2.8316.0027-1.5564-1.2701-2.8393-2.8334-2.8559-1.5652-.0166-2.8512,1.2467-2.862,2.8116ZM41.2826,51.9258c.0095-1.5629-1.2181-2.8103-2.7711-2.8157-1.5032-.0052-2.7676,1.2437-2.7919,2.758-.0247,1.5345,1.2349,2.799,2.7889,2.7998,1.5391.0008,2.7648-1.2107,2.7741-2.7421ZM53.1104,76.1644c-.0072-1.5135-1.2422-2.7292-2.7518-2.7087-1.4904.0202-2.6986,1.2299-2.7067,2.7102-.0083,1.5018,1.2226,2.7286,2.7366,2.7276,1.5288-.001,2.7292-1.2045,2.722-2.729ZM56.5446,44.3062c1.2667.083,2.6308-.9706,2.6464-2.5703.0141-1.452-1.1493-2.6174-2.6082-2.6204-1.4598-.003-2.6199,1.1543-2.6162,2.6101.0036,1.4398,1.1328,2.5701,2.5781,2.5807ZM67.8678,63.1193c.0053-1.3819-1.0759-2.4881-2.4504-2.507-1.3895-.0191-2.5213,1.1042-2.5201,2.501.0012,1.3666,1.1116,2.4721,2.4859,2.4749,1.3761.0028,2.4793-1.0934,2.4846-2.4689ZM68.7458,79.328c1.2414.0179,2.2535-.9483,2.2894-2.1855.0355-1.2215-.9592-2.2617-2.1856-2.2858-1.275-.025-2.3038.9545-2.3216,2.2103-.0173,1.2213.9851,2.2432,2.2178,2.261ZM61.1481,46.9073c-.017,1.2416.9635,2.243,2.2058,2.2528,1.2012.0095,2.2116-.972,2.2406-2.1765.0291-1.2115-.9903-2.2457-2.2194-2.2516-1.2161-.0058-2.2104.9654-2.227,2.1753ZM53.8504,27.2833c.005,1.1805.9568,2.1231,2.1363,2.1154,1.1766-.0077,2.1349-.9678,2.1301-2.1342-.0048-1.1622-.9822-2.1255-2.1489-2.1178-1.1828.0078-2.1224.9559-2.1175,2.1366ZM71.4217,70.3649c0,1.1099.8701,1.9775,1.9729,1.9669,1.081-.0104,1.9384-.8672,1.9474-1.9459.0093-1.1117-.8461-1.9828-1.954-1.9897-1.1147-.007-1.9663.8457-1.9664,1.9687ZM42.9653,39.9197c.0047,1.0996.8966,1.9606,2.0091,1.9396,1.0466-.0198,1.9058-.8918,1.9062-1.9345.0004-1.1034-.8845-1.9827-1.985-1.9723-1.0668.0101-1.9349.8948-1.9303,1.9672ZM52.6592,15.3359c.0034-1.047-.856-1.9134-1.9059-1.9215-1.0467-.0081-1.9043.8494-1.9076,1.9073-.0033,1.0691.8273,1.9094,1.8929,1.9151,1.0524.0056,1.9172-.8503,1.9206-1.9008ZM30.0495,76.855c.0092.9803.7993,1.7709,1.777,1.7782.9862.0074,1.8251-.83,1.8148-1.8116-.0101-.9673-.8183-1.7655-1.7928-1.7708-1.0129-.0055-1.8085.7925-1.799,1.8042ZM53.0713,22.6629c.9309-.0009,1.6711-.7272,1.6827-1.6513.0115-.9271-.7836-1.7167-1.7085-1.6966-.9211.02-1.6558.774-1.6504,1.6938.0054.924.7461,1.6549,1.6763,1.654ZM40.622,37.279c-.0088-.9198-.7633-1.669-1.6745-1.6626-.9062.0064-1.674.771-1.6805,1.6735-.0067.9299.7776,1.696,1.7196,1.6796.9308-.0162,1.6444-.7538,1.6355-1.6905ZM43.9385,73.3532c0,.9274.7251,1.6603,1.6576,1.6753.9428.0152,1.7136-.744,1.7103-1.6845-.0032-.9145-.7497-1.6711-1.6633-1.686-.9382-.0152-1.7046.7468-1.7046,1.6951ZM75.4739,55.2202c-.942.0015-1.7004.7685-1.6835,1.7025.0164.9082.7746,1.6468,1.6897,1.6461.942-.0007,1.6919-.7646,1.6766-1.7078-.015-.9215-.7542-1.6422-1.6827-1.6408ZM28.6201,53.8627c.024-.9229-.6499-1.6363-1.5765-1.6688-.8981-.0316-1.6416.6768-1.6678,1.5889-.0247.862.6818,1.6073,1.5578,1.6433.9053.0372,1.6632-.6654,1.6865-1.5634ZM74.3902,53.7877c.8777-.009,1.5466-.6837,1.5498-1.5634.0033-.8949-.7006-1.5911-1.5957-1.5782-.8596.0123-1.5616.7163-1.564,1.5684-.0025.881.7152,1.5824,1.6099,1.5732ZM49.0139,18.0347c-.8543-.0275-1.5541.6048-1.5951,1.4412-.0418.8514.6455,1.5816,1.5028,1.5967.8434.0148,1.5387-.6395,1.5689-1.4765.0302-.8346-.6314-1.5342-1.4767-1.5613ZM60.8935,71.4973c.7956.0105,1.4654-.6476,1.4668-1.4411.0014-.7983-.6516-1.4438-1.4593-1.4425-.7829.0013-1.417.6246-1.4303,1.4058-.0136.8046.6244,1.4672,1.4228,1.4777ZM44.3866,86.3786c.7876-.0068,1.4216-.6315,1.4311-1.4102.0097-.7983-.641-1.4409-1.456-1.438-.817.0029-1.4404.6445-1.4212,1.4625.0185.7854.6521,1.3926,1.4461,1.3857ZM60.4086,49.5517c.002-.7752-.6277-1.419-1.4065-1.4381-.7931-.0195-1.4575.6379-1.4566,1.4412.0009.7881.6176,1.415,1.404,1.4271.8116.0125,1.457-.6201,1.4591-1.4302ZM51.9732,30.0053c.7435-.0007,1.3504-.6105,1.3376-1.3439-.0127-.7304-.6421-1.3365-1.3716-1.3209-.7163.0153-1.2927.6045-1.2979,1.3266-.0054.753.5778,1.3389,1.3319,1.3382ZM72.1726,75.1115c.6029.021,1.0696-.4186,1.078-1.0155.0081-.5761-.4177-1.0258-.9913-1.0468-.6002-.022-1.0704.4205-1.0794,1.0156-.0087.5729.4218,1.0267.9927,1.0466ZM44.3751,27.979c-.5999.0053-1.05.4666-1.0369,1.0625.0123.5591.4715,1.0152,1.0329,1.026.5822.0112,1.0553-.4583,1.0571-1.0493.0018-.6011-.4476-1.0446-1.0531-1.0392ZM41.6608,49.2711c.5723-.0158,1.0591-.5413,1.0266-1.1083-.0324-.5644-.5039-.9923-1.0817-.9814-.6016.0113-1.0433.4867-1.0134,1.0908.028.566.5076,1.0143,1.0685.9988ZM52.2135,10.2143c.0106-.5369-.3935-.9611-.9309-.9772-.5449-.0163-.9734.3731-.9986.9077-.0263.5575.3991,1.0056.9568,1.0078.5382.0022.9623-.4069.9728-.9384ZM53.6908,23.1746c-.5424.0119-.9377.431-.9167.9719.0195.5024.4418.9114.9419.9121.5186.0007.9548-.4433.948-.9651-.0069-.5341-.4271-.9308-.9732-.9188ZM73.8505,48.9881c-.0086-.4814-.412-.8885-.8872-.8954-.4987-.0073-.9327.4195-.9298.9142.003.5034.4282.899.9479.8817.4888-.0162.8777-.4192.8691-.9005ZM32.7021,41.988c-.4861.0089-.8867.4134-.8888.8974-.0022.5037.4363.9209.9421.8964.4859-.0236.8759-.4406.863-.9228-.0127-.476-.4375-.8797-.9164-.871ZM54.0502,17.8536c-.0103-.4673-.3948-.8301-.8682-.8191-.4788.0111-.847.3797-.8463.8472.0007.4802.4194.8753.9018.8511.4728-.0238.8233-.4029.8127-.8792ZM50.5013,11.5402c-.3714-.0136-.6792.2636-.7027.6329-.0242.3804.2963.7201.6784.719.3639-.001.6675-.3013.674-.6666.0066-.3703-.2792-.6718-.6497-.6854ZM52.3268,13.3676c.3047-.0087.5606-.284.5441-.5851-.0169-.3066-.2894-.5413-.6025-.5188-.2969.0213-.5121.2521-.5124.5493-.0003.3071.2635.5634.5708.5546Z"/>
    <path class="d" d="M24.7322,66.6033c.2699-.0457.2193-.3129.3142-.4738.3653-.619,1.067-.9494,1.7544-.7949.7206.162,1.2275.7256,1.2841,1.4279.0607.7524-.3491,1.4052-1.0448,1.6647-.7853.2929-1.6353-.0507-2.0366-.8092-.0666-.1259-.0142-.3636-.2714-.3453v-.6695Z"/>
    <path class="d" d="M51.5448,7.463c-.0059.1363.1332.1592.1926.2451.2029.2933.1873.6349-.0439.8642-.2381.2362-.6012.2549-.8633.0446-.2725-.2186-.3094-.5715-.1019-.8999.0519-.0821.2085-.1065.1462-.2539h.6703Z"/>
    <path class="d" d="M38.1386,61.0656c-.0087,3.2939-2.7281,5.9828-6.0363,5.9686-3.3276-.0143-6.0312-2.7395-6.0134-6.0615.0177-3.2851,2.748-5.9932,6.0504-5.9612,3.6546.0355,6.0847,3.0529,5.9993,6.0541Z"/>
    <path class="d" d="M59.8987,72.8054c3.3023.0194,5.9308,2.6694,5.8964,5.9446-.0342,3.2526-2.6945,5.8492-5.9636,5.8207-3.2621-.0284-5.8602-2.6736-5.8374-5.9433.0224-3.2218,2.6788-5.841,5.9046-5.822Z"/>
    <path class="d" d="M67.5297,59.5951c-2.6392.0984-5.1998-2.1299-5.1916-5.1366.0078-2.8706,2.2945-5.1578,5.1802-5.1566,2.8581.0011,5.1329,2.2727,5.1635,5.1171.0322,2.9869-2.4973,5.2515-5.1521,5.1761Z"/>
    <path class="d" d="M44.5442,78.3417c.0027,2.8557-2.276,5.1385-5.1342,5.1435-2.8506.005-5.1674-2.2889-5.1716-5.1204-.0042-2.8316,2.3077-5.1439,5.1486-5.1495,2.8528-.0056,5.1545,2.2823,5.1572,5.1265Z"/>
    <path class="d" d="M57.0644,38.3022c-2.2983.0109-4.1707-1.8334-4.1789-4.1163-.0084-2.3304,1.8307-4.1822,4.1614-4.1901,2.2965-.0078,4.1687,1.8333,4.1866,4.1171.0181,2.3121-1.839,4.1782-4.1692,4.1892Z"/>
    <path class="d" d="M68.8443,63.5108c-.0828-2.1695,1.8283-4.0748,4.0635-4.0888,2.1818-.0137,4.1533,1.7999,4.1273,4.0943-.026,2.2928-1.8346,4.0937-4.1326,4.0898-2.3987-.0041-4.1572-2.0768-4.0582-4.0952Z"/>
    <path class="d" d="M31.7033,53.4293c-2.2022.0078-4.0274-1.7486-4.0161-3.9381.0137-2.6565,2.2365-3.9933,3.9572-4.003,1.7862-.0102,3.9696,1.3646,4.0151,3.9451.0385,2.1817-1.7694,3.9883-3.9562,3.996Z"/>
    <path class="d" d="M38.0882,39.9171c1.7599-.0906,3.7296,1.4281,3.7305,3.7081.0008,2.0798-1.69,3.7672-3.7644,3.7567-2.0606-.0104-3.701-1.6787-3.7288-3.7351-.0281-2.0746,1.7723-3.8226,3.7627-3.7298Z"/>
    <path class="d" d="M46.5301,83.6965c-.0036-2.0078,1.6374-3.6456,3.6578-3.6508,2.0129-.0051,3.6711,1.6398,3.6707,3.6415-.0004,2.0061-1.6465,3.6494-3.6609,3.6546-2.0074.0051-3.664-1.6414-3.6676-3.6454Z"/>
    <path class="d" d="M70.3301,70.6466c.0869,1.648-1.2883,3.466-3.4477,3.5006-1.9417.0311-3.5146-1.545-3.5112-3.4963.0034-1.9254,1.5517-3.471,3.4795-3.4734,1.9288-.0024,3.4732,1.5374,3.4794,3.4691Z"/>
    <path class="d" d="M40.3646,34.0088c.0019-1.8496,1.4791-3.3316,3.3251-3.3362,1.8691-.0046,3.3854,1.5078,3.3691,3.3604-.0161,1.8269-1.5346,3.3238-3.3654,3.3174-1.8378-.0064-3.3308-1.5051-3.3289-3.3417Z"/>
    <path class="d" d="M62.8241,37.2176c1.8471-.0094,3.3477,1.4699,3.3553,3.3076.0077,1.8727-1.489,3.3715-3.358,3.3628-1.8399-.0086-3.3365-1.5059-3.3358-3.3376.0007-1.8323,1.4944-3.3235,3.3385-3.3328Z"/>
    <path class="d" d="M34.0223,71.0234c-.013,1.8613-1.4826,3.2954-3.365,3.2839-1.8293-.0112-3.2892-1.4831-3.2869-3.3137.0023-1.8481,1.4989-3.3354,3.345-3.3245,1.8576.011,3.3199,1.4943,3.3069,3.3544Z"/>
    <path class="d" d="M37.8532,72.433c-1.6906-.0092-3.0528-1.3739-3.0489-3.0542.0039-1.6829,1.3674-3.0358,3.0615-3.0377,1.7275-.002,3.0844,1.3586,3.0699,3.0781-.0142,1.6852-1.3825,3.0231-3.0825,3.0138Z"/>
    <path class="d" d="M71.7676,45.4595c.0085,1.6299-1.3044,2.9498-2.9354,2.9511-1.6304.0013-2.9602-1.32-2.9576-2.9387.0026-1.6074,1.3622-2.9489,2.9732-2.9336,1.6043.0153,2.9116,1.323,2.9199,2.9211Z"/>
    <path class="d" d="M45.7267,24.9383c.0108-1.5649,1.2968-2.8282,2.862-2.8116,1.5633.0166,2.8361,1.2996,2.8334,2.8559-.0028,1.5577-1.2873,2.834-2.8499,2.8316-1.6065-.0025-2.8566-1.2659-2.8455-2.8759Z"/>
    <path class="d" d="M41.2826,51.9258c-.0093,1.5314-1.235,2.7428-2.7741,2.7421-1.554-.0008-2.8136-1.2653-2.7889-2.7998.0244-1.5142,1.2887-2.7632,2.7919-2.758,1.5529.0054,2.7806,1.2528,2.7711,2.8157Z"/>
    <path class="d" d="M53.1104,76.1644c.0072,1.5245-1.1932,2.728-2.722,2.729-1.514.001-2.7449-1.2258-2.7366-2.7276.0081-1.4803,1.2163-2.69,2.7067-2.7102,1.5097-.0204,2.7446,1.1952,2.7518,2.7087Z"/>
    <path class="d" d="M56.5446,44.3062c-1.4453-.0105-2.5745-1.1409-2.5781-2.5807-.0036-1.4558,1.1565-2.6131,2.6162-2.6101,1.4588.003,2.6223,1.1684,2.6082,2.6204-.0155,1.5998-1.3797,2.6533-2.6464,2.5703Z"/>
    <path class="d" d="M67.8678,63.1193c-.0053,1.3755-1.1085,2.4718-2.4846,2.4689-1.3743-.0028-2.4847-1.1083-2.4859-2.4749-.0012-1.3969,1.1306-2.5201,2.5201-2.501,1.3744.0189,2.4557,1.1251,2.4504,2.507Z"/>
    <path class="d" d="M68.7458,79.328c-1.2327-.0178-2.2351-1.0396-2.2178-2.261.0178-1.2558,1.0466-2.2353,2.3216-2.2103,1.2265.024,2.2211,1.0642,2.1856,2.2858-.0359,1.2372-1.0481,2.2034-2.2894,2.1855Z"/>
    <path class="d" d="M61.1481,46.9073c.0166-1.2098,1.0109-2.1811,2.227-2.1753,1.2292.0059,2.2486,1.0401,2.2194,2.2516-.029,1.2045-1.0393,2.186-2.2406,2.1765-1.2423-.0098-2.2228-1.0112-2.2058-2.2528Z"/>
    <path class="d" d="M53.8504,27.2833c-.005-1.1807.9347-2.1288,2.1175-2.1366,1.1667-.0077,2.1441.9556,2.1489,2.1178.0048,1.1664-.9535,2.1264-2.1301,2.1342-1.1794.0077-2.1313-.9349-2.1363-2.1154Z"/>
    <path class="d" d="M71.4217,70.3649c0-1.123.8517-1.9757,1.9664-1.9687,1.1079.0069,1.9632.878,1.954,1.9897-.009,1.0787-.8664,1.9355-1.9474,1.9459-1.1028.0106-1.973-.8569-1.9729-1.9669Z"/>
    <path class="d" d="M42.9653,39.9197c-.0046-1.0725.8635-1.9572,1.9303-1.9672,1.1005-.0104,1.9854.8689,1.985,1.9723-.0004,1.0427-.8596,1.9147-1.9062,1.9345-1.1125.0211-2.0044-.84-2.0091-1.9396Z"/>
    <path class="d" d="M52.6592,15.3359c-.0034,1.0505-.8682,1.9064-1.9206,1.9008-1.0656-.0056-1.8962-.846-1.8929-1.9151.0033-1.0578.8609-1.9153,1.9076-1.9073,1.0499.0081,1.9093.8746,1.9059,1.9215Z"/>
    <path class="d" d="M30.0495,76.855c-.0095-1.0117.7861-1.8097,1.799-1.8042.9745.0053,1.7827.8035,1.7928,1.7708.0103.9816-.8285,1.819-1.8148,1.8116-.9778-.0073-1.7678-.7979-1.777-1.7782Z"/>
    <path class="d" d="M53.0713,22.6629c-.9302.0009-1.6709-.73-1.6763-1.654-.0054-.9198.7293-1.6738,1.6504-1.6938.9249-.0201,1.7201.7694,1.7085,1.6966-.0115.924-.7517,1.6504-1.6827,1.6513Z"/>
    <path class="d" d="M40.622,37.279c.0089.9367-.7046,1.6743-1.6355,1.6905-.942.0164-1.7263-.7497-1.7196-1.6796.0065-.9026.7743-1.6671,1.6805-1.6735.9112-.0064,1.6657.7428,1.6745,1.6626Z"/>
    <path class="d" d="M43.9385,73.3532c0-.9483.7664-1.7104,1.7046-1.6951.9136.0148,1.6601.7715,1.6633,1.686.0033.9405-.7675,1.6997-1.7103,1.6845-.9326-.0151-1.6577-.7479-1.6576-1.6753Z"/>
    <path class="d" d="M75.4739,55.2202c.9285-.0015,1.6677.7193,1.6827,1.6408.0154.9432-.7345,1.7071-1.6766,1.7078-.9151.0007-1.6733-.7378-1.6897-1.6461-.0169-.934.7416-1.701,1.6835-1.7025Z"/>
    <path class="d" d="M28.6201,53.8627c-.0233.898-.7812,1.6005-1.6865,1.5634-.876-.036-1.5825-.7813-1.5578-1.6433.0261-.9121.7697-1.6205,1.6678-1.5889.9266.0326,1.6004.7459,1.5765,1.6688Z"/>
    <path class="d" d="M74.3902,53.7877c-.8947.0092-1.6124-.6922-1.6099-1.5732.0024-.8521.7045-1.556,1.564-1.5684.895-.0129,1.5989.6834,1.5957,1.5782-.0032.8797-.6721,1.5544-1.5498,1.5634Z"/>
    <path class="d" d="M49.0139,18.0347c.8453.0272,1.5068.7267,1.4767,1.5613-.0303.837-.7255,1.4913-1.5689,1.4765-.8573-.0151-1.5446-.7452-1.5028-1.5967.041-.8364.7408-1.4686,1.5951-1.4412Z"/>
    <path class="d" d="M60.8935,71.4973c-.7984-.0105-1.4364-.6731-1.4228-1.4777.0132-.7813.6473-1.4046,1.4303-1.4058.8077-.0013,1.4608.6442,1.4593,1.4425-.0014.7935-.6712,1.4516-1.4668,1.4411Z"/>
    <path class="d" d="M44.3866,86.3786c-.794.0069-1.4276-.6003-1.4461-1.3857-.0192-.818.6042-1.4595,1.4212-1.4625.8151-.0029,1.4658.6397,1.456,1.438-.0095.7787-.6435,1.4034-1.4311,1.4102Z"/>
    <path class="d" d="M60.4086,49.5517c-.0021.8101-.6476,1.4427-1.4591,1.4302-.7864-.0121-1.4031-.639-1.404-1.4271-.0009-.8033.6635-1.4607,1.4566-1.4412.7788.0191,1.4086.663,1.4065,1.4381Z"/>
    <path class="d" d="M51.9732,30.0053c-.7541.0007-1.3373-.5852-1.3319-1.3382.0052-.7222.5816-1.3114,1.2979-1.3266.7296-.0156,1.359.5906,1.3716,1.3209.0127.7334-.5942,1.3432-1.3376,1.3439Z"/>
    <path class="d" d="M72.1726,75.1115c-.5709-.0199-1.0014-.4737-.9927-1.0466.009-.5952.4792-1.0376,1.0794-1.0156.5736.021.9994.4707.9913,1.0468-.0084.5969-.4751,1.0365-1.078,1.0155Z"/>
    <path class="d" d="M44.3751,27.979c.6056-.0054,1.055.4381,1.0531,1.0392-.0018.5909-.4748,1.0605-1.0571,1.0493-.5614-.0108-1.0206-.4669-1.0329-1.026-.0131-.5959.437-1.0571,1.0369-1.0625Z"/>
    <path class="d" d="M41.6608,49.2711c-.5609.0155-1.0405-.4328-1.0685-.9988-.0299-.6041.4117-1.0795,1.0134-1.0908.5778-.0109,1.0493.417,1.0817.9814.0325.567-.4542,1.0924-1.0266,1.1083Z"/>
    <path class="d" d="M52.2135,10.2143c-.0105.5315-.4346.9406-.9728.9384-.5577-.0023-.9831-.4504-.9568-1.0078.0252-.5346.4537-.9241.9986-.9077.5374.0161.9415.4403.9309.9772Z"/>
    <path class="d" d="M53.6908,23.1746c.5461-.012.9663.3847.9732.9188.0068.5218-.4294.9658-.948.9651-.5001-.0007-.9224-.4096-.9419-.9121-.021-.5409.3743-.96.9167-.9719Z"/>
    <path class="d" d="M73.8505,48.9881c.0086.4813-.3803.8843-.8691.9005-.5197.0173-.9449-.3783-.9479-.8817-.0029-.4947.4312-.9215.9298-.9142.4752.0069.8785.414.8872.8954Z"/>
    <path class="d" d="M32.7021,41.988c.4789-.0088.9036.395.9164.871.0129.4822-.3771.8992-.863.9228-.5058.0246-.9444-.3926-.9421-.8964.0021-.4841.4027-.8885.8888-.8974Z"/>
    <path class="d" d="M54.0502,17.8536c.0105.4763-.34.8554-.8127.8792-.4825.0242-.9012-.3709-.9018-.8511-.0006-.4675.3676-.8361.8463-.8472.4734-.011.8579.3518.8682.8191Z"/>
    <path class="d" d="M50.5013,11.5402c.3705.0136.6563.315.6497.6854-.0065.3653-.3102.6656-.674.6666-.3821.001-.7026-.3386-.6784-.719.0235-.3693.3313-.6465.7027-.6329Z"/>
    <path class="d" d="M52.3268,13.3676c-.3073.0088-.5711-.2474-.5708-.5546.0003-.2972.2155-.528.5124-.5493.3131-.0225.5857.2122.6025.5188.0166.3011-.2394.5764-.5441.5851Z"/>
  </g>
  <g>
    <path class="d" d="M105.4971,24.7864c-.4626,1.4717-.9257,2.9432-1.3878,4.415-1.2553,3.9984-2.5072,7.9978-3.7725,11.9931-.0735.2319-.0196.6262-.3721.635-.3885.0097-.2935-.3935-.3444-.6223-1.621-7.2844-3.231-14.5712-4.8421-21.8578-.0238-.1074-.0411-.2162-.0709-.3747h1.8488c1.1933,5.3859,2.3844,10.7619,3.5933,16.2183.2564-.2127.2697-.4598.336-.6713,1.5618-4.9827,3.1188-9.9669,4.6855-14.9481.0731-.2324.0188-.6142.3841-.6208.3733-.0067.3246.3849.3952.6121,1.5435,4.965,3.0734,9.9342,4.6071,14.9022.0694.2248.1498.4461.2251.6691.0463-.0015.0926-.003.1389-.0045,1.2158-5.3815,2.4316-10.763,3.6526-16.1677h1.839c-.1124.5225-.2108.9991-.3176,1.4737-1.5599,6.9306-3.1199,13.8612-4.6861,20.7904-.0498.2204.0282.574-.298.6014-.3915.0328-.3271-.372-.3962-.5953-1.6296-5.2666-3.2458-10.5373-4.866-15.8068-.0643-.2093-.1435-.414-.2157-.6208-.0454-.0067-.0908-.0135-.1362-.0202Z"/>
    <path class="d" d="M191.7466,27.8849v-9.529h1.6838v23.4456h-1.6576v-2.5473c-.0428-.0084-.0856-.0168-.1283-.0252-.22.2714-.4347.5473-.6608.8135-.8325.9803-1.8269,1.7406-3.0913,2.0457-2.2154.5346-4.1272-.0478-5.6998-1.6959-1.5124-1.5851-2.3253-3.5023-2.5408-5.6632-.1681-1.6864-.0776-3.3599.4994-4.9809.4743-1.3324,1.1949-2.5047,2.2015-3.4994,2.5664-2.5358,6.2871-2.3214,8.5503.4964.2601.3238.4954.6676.8435,1.1395ZM181.3364,33.3914c-.0255,1.5427.3789,2.9705,1.1652,4.2907.4781.8027,1.1053,1.4685,1.9156,1.9449,1.2675.7453,2.5867.8295,3.93.2377,1.3346-.588,2.275-1.5943,2.8349-2.9231.9487-2.2516.955-4.5362.0748-6.8118-.3779-.9769-.9813-1.812-1.7876-2.4876-1.5344-1.2858-3.6484-1.3969-5.3117-.2845-.7017.4693-1.2582,1.0787-1.6858,1.8032-.7697,1.304-1.1581,2.7128-1.1354,4.2306Z"/>
    <path class="d" d="M219.2286,39.0991v8.9166h-1.6292v-23.1182c.2796,0,.5207,0,.7618,0,.2637,0,.5273,0,.866,0v2.7829c.0397.0122.0794.0244.1192.0366.0907-.1063.1848-.21.2714-.3195.2781-.3515.531-.726.8335-1.0548,2.0721-2.2525,5.3296-2.4867,7.6989-.5476,1.3383,1.0953,2.2497,2.4962,2.7657,4.1382.7713,2.4549.715,4.9095-.1486,7.332-.4663,1.3081-1.229,2.4345-2.2277,3.4055-2.1282,2.0692-5.4936,2.1706-7.6861.1615-.5395-.4943-1.0061-1.0682-1.6248-1.733ZM219.1338,33.8063c.0034,1.3884.3783,3.0267,1.4684,4.4363,1.9728,2.5512,5.2466,2.6706,7.3011.2781,2.3263-2.7091,2.3778-7.3442.1124-10.1051-1.9985-2.4356-5.2728-2.4259-7.2534.0194-1.1849,1.4629-1.626,3.1657-1.6284,5.3713Z"/>
    <path class="d" d="M289.212,24.9331h1.6303v2.7484c.0396.0119.0792.0238.1188.0356.0906-.107.1842-.2116.2712-.3215.278-.3516.5312-.7259.8338-1.0546,2.0734-2.2523,5.3294-2.4851,7.6991-.5447,1.338,1.0956,2.249,2.4967,2.7647,4.1388.7709,2.4551.7141,4.9097-.1499,7.332-.4665,1.308-1.2295,2.4343-2.2285,3.4049-2.1285,2.0681-5.4938,2.1687-7.6862.1587-.539-.4941-1.006-1.0668-1.6052-1.7097-.0083,1.0767-.0033,2.0508-.0042,3.0246-.0009.9649-.0002,1.9297-.0002,2.8946,0,.9806,0,1.9611,0,2.976h-1.6436v-23.0833ZM290.6926,33.4387c.0881.6876.1265,1.3861.2742,2.0606.3684,1.6822,1.1843,3.0903,2.6791,4.0312,1.6589,1.0442,3.5367.9434,5.0813-.2585.6477-.5041,1.1458-1.1312,1.5424-1.8444.5523-.9933.893-2.0584.9932-3.1867.1921-2.1622-.2842-4.1598-1.6736-5.8596-1.9743-2.4154-5.2354-2.3775-7.2039.0418-1.1882,1.4603-1.6333,3.162-1.6928,5.0157Z"/>
    <path class="d" d="M262.3163,36.4514c.4385.4576.8672.905,1.3312,1.3893-1.29,2.0713-3.0092,3.6267-5.406,4.2435-3.6921.9501-7.4158-.0553-9.8239-3.5257-1.2403-1.7874-1.9518-3.7736-2.2351-5.9175-.3061-2.3164-.2043-4.6105.4935-6.8545.5758-1.8516,1.5603-3.4594,2.9098-4.8568,3.2914-3.4083,9.0223-3.4082,12.3507-.0412.6648.6725,1.2418,1.4083,1.7316,2.2929-.2422.2389-.4768.4714-.7127.7027-.2191.2149-.4395.4286-.6965.679-.2127-.3017-.3741-.5388-.5437-.77-1.0523-1.4351-2.373-2.5143-4.1257-2.9514-2.7633-.6892-5.0896.1406-7.0136,2.1677-1.5071,1.5878-2.2588,3.5425-2.5204,5.6811-.2334,1.9084-.1298,3.8049.4903,5.648.4873,1.4484,1.2574,2.7217,2.3474,3.7964,2.698,2.66,6.8659,2.7645,9.6692.2128.6093-.5546,1.1255-1.2113,1.7536-1.8963Z"/>
    <path class="d" d="M162.6765,36.2352c.485.3205.9265.6122,1.4092.9312-.5657,1.5333-1.366,2.8505-2.6282,3.8564-.7126.5679-1.5094.9694-2.4134,1.1251-2.7592.4751-4.9133-.3964-6.3682-2.4869-1.3538-1.9452-1.9376-4.1146-1.8951-6.4728.0394-2.1896.622-4.2033,1.8894-6.0011,1.2485-1.7709,2.9257-2.7441,5.1292-2.6906,1.6751.0406,3.0893.6834,4.235,1.9074,1.3835,1.478,2.1153,3.2557,2.3764,5.2414.0757.5762.1071,1.1582.167,1.8289-2.0365.0786-4.0211.0256-6.0041.0354-1.9703.0097-3.9406.0021-5.9282.0021-.1689.5848-.0214,1.1098.0625,1.6284.2309,1.4275.784,2.7107,1.8018,3.762,1.3255,1.3691,3.1263,1.7178,4.8808.9637.9764-.4196,1.7646-1.063,2.3244-1.9683.3176-.5136.606-1.0452.9615-1.6623ZM152.7583,31.5887h9.8532c-.245-1.3212-.6531-2.5119-1.548-3.488-1.8434-2.0105-4.71-2.1023-6.5555-.2048-.9884,1.0163-1.4414,2.2886-1.7497,3.6928Z"/>
    <path class="d" d="M132.3699,27.6777v-2.7222h1.6254c.1367.4472.1815,15.9027.0371,16.8598h-1.6353v-2.6968c-.2098.2214-.3075.3222-.4027.4253-.4096.4439-.7858.9249-1.2331,1.3267-2.1019,1.8882-5.399,1.9032-7.5426-.0754-1.3916-1.2846-2.2995-2.8558-2.7145-4.7001-.5456-2.4249-.4444-4.8077.565-7.1105.4735-1.0801,1.141-2.0321,1.9997-2.8413,2.5756-2.4272,6.2524-2.1702,8.4616.589.2509.3134.4768.6468.7143.9709.0417-.0084.0834-.0169.125-.0253ZM132.5125,33.2656c-.0329-.3243-.0601-.8634-.1465-1.3929-.2563-1.5714-.9071-2.9493-2.0815-4.0508-1.6139-1.5139-3.9598-1.6379-5.7339-.3102-.7328.5484-1.2904,1.2461-1.6958,2.0587-1.0514,2.1071-1.2164,4.2852-.4714,6.5241.3891,1.1693.9907,2.206,1.9346,3.0204,1.6006,1.3809,3.6493,1.5062,5.405.3345.9815-.6551,1.6673-1.5485,2.1284-2.6263.457-1.0685.6289-2.1913.6611-3.5575Z"/>
    <path class="d" d="M281.0679,27.6819v-2.7472h1.6468v16.8663h-1.6393c-.0106-.8422-.0213-1.6945-.0341-2.7082-.2785.3486-.4425.5565-.6091.7622-.8525,1.0519-1.8725,1.8851-3.2044,2.2218-1.8737.4738-3.6044.1464-5.1155-1.1016-1.0927-.9025-1.9049-2.0271-2.4278-3.3381-1.0823-2.7139-1.125-5.4635-.1209-8.2061.517-1.4121,1.3606-2.6272,2.5272-3.5888,2.4656-2.0322,5.7773-1.768,7.8891.6236.3385.3834.6285.8096.9409,1.216h.1471ZM281.171,33.4341c-.0164-.3359-.0171-.6735-.0518-1.0075-.1846-1.7753-.8252-3.3435-2.1408-4.5895-1.5933-1.5089-3.8959-1.6585-5.677-.3778-.6852.4927-1.2316,1.1151-1.6259,1.8573-1.4587,2.7459-1.4364,5.4948.0375,8.2265.4209.7801,1.0034,1.4327,1.7465,1.9253,1.483.983,3.0187,1.0402,4.577.2004,1.0165-.5478,1.761-1.3731,2.2841-2.3988.6144-1.2047.8595-2.4918.8503-3.8358Z"/>
    <path class="d" d="M338.9394,27.8463v-2.9075h1.5975c.1322.496.1677,16.0049.0356,16.8809h-1.5902c-.0993-.8451.0061-1.7101-.0746-2.7247-.2625.3367-.4202.5448-.584.748-.8495,1.0543-1.868,1.8895-3.1989,2.2296-1.8723.4784-3.6046.1571-5.118-1.0885-1.1125-.9156-1.9335-2.0599-2.4587-3.396-1.0596-2.6956-1.1012-5.4239-.1058-8.1432.5331-1.4563,1.4046-2.7036,2.6254-3.6772,2.425-1.9338,5.6676-1.6661,7.7397.6381.3682.4094.6836.8664,1.132,1.4405ZM339.0559,33.4877c-.0174-.3583-.0173-.7185-.055-1.0747-.1851-1.7499-.8136-3.2997-2.101-4.5387-1.6048-1.5445-3.9286-1.7077-5.727-.4075-.7224.5222-1.2852,1.1896-1.6886,1.978-1.3273,2.5943-1.336,5.2063-.0443,7.8161.3925.793.935,1.4749,1.6407,2.019,1.5714,1.2116,3.4736,1.2912,5.1404.2121.8677-.5618,1.522-1.3148,1.9883-2.2343.601-1.1849.8476-2.4489.8463-3.77Z"/>
    <path class="d" d="M337.6622,58.0857h-9.8468v-.9241h9.8202v-2.3676h.8434v2.343h9.8892v.9492h-9.8382v4.03c.5195.0953,1.0091.156,1.4833.2768,2.8678.7301,4.8252,2.5602,6.1294,5.1492.7375,1.4639,1.1153,3.0316,1.1336,4.6678.0263,2.3555.007,4.7115.0051,7.0673,0,.1093-.0206.2187-.0367.378h-.8098c0-.2392,0-.4778,0-.7163,0-2.1987.0267-4.3979-.0069-6.5961-.0429-2.8004-1.0502-5.2076-3.1041-7.1357-1.2104-1.1362-2.654-1.8181-4.3058-2.0414-.1106-.015-.2228-.0229-.3343-.0232-.0398-.0001-.0797.032-.1562.0654v12.2836h5.5436v.9382h-5.5517v3.3491c-.2954.0135-.527.0241-.8278.0379v-3.3449c-1.8895-.0495-3.7181,0-5.6015-.0311v-.9261h5.5252v-12.3757c-.9967.0547-1.8989.2991-2.7474.7249-2.4799,1.2444-3.9648,3.2946-4.7259,5.9132-.277.953-.3809,1.9348-.3825,2.9259-.0035,2.0641-.0011,4.1282-.0011,6.1923,0,.2421,0,.4843,0,.7691h-.7912c-.0158-.2018-.0411-.3759-.0413-.55-.0024-2.2885-.0504-4.5783.0111-6.8651.0791-2.9418,1.1059-5.5205,3.2291-7.6051,1.4937-1.4666,3.3-2.2907,5.4636-2.4884.0685-.6687.0223-1.334.0308-1.9956.0082-.6484.0018-1.2971.0018-2.0744Z"/>
    <path class="d" d="M141.9481,26.7803h-2.2907v-1.8465h2.2732c.0155-2.1457-.002-4.2162.0109-6.324h1.7174v6.2642h2.6843v1.8896h-2.6377v15.0421h-1.7575v-15.0254Z"/>
    <path class="d" d="M317.8077,26.7793h-2.3054v-1.8584h2.3014v-6.3135h1.6916c.119.6802.0429,1.3688.0563,2.0504.0137.6949.0031,1.3903.0031,2.0855v2.1326h2.6666c.0859.6437.0668,1.2322.0085,1.8829h-2.6303c-.096,1.7051-.0299,3.3555-.0421,5.0038-.0124,1.6818-.0027,3.3637-.0027,5.0456v5.0073h-1.7391c-.0027-1.6612-.0063-3.3103-.0077-4.9594-.0013-1.6819-.0003-3.3637-.0003-5.0456v-5.0313Z"/>
    <path class="d" d="M169.6759,24.9347h1.6875v2.0729c.0406.0153.0811.0305.1216.0458.1097-.1473.2267-.2898.3277-.4428.4231-.6411.8964-1.2352,1.5524-1.6559,1.017-.6522,1.955-.6128,2.9851.1651-.2781.5801-.5636,1.1754-.8631,1.8001-.1698-.0573-.2941-.0941-.4145-.1408-.5529-.2145-1.0572-.0904-1.5308.2228-.5992.3963-1.0042.9558-1.2916,1.6013-.3764.8454-.6317,1.731-.6908,2.6546-.08,1.2522-.1436,2.5069-.1599,3.7613-.0259,1.9955-.0069,3.9916-.007,5.9875v.7621c-.5761.1679-1.1232.0751-1.7167.0671v-16.9012Z"/>
    <path class="d" d="M201.0071,41.8179c-.5973,0-1.1253,0-1.6534,0-.1369-.4685-.1754-16.0457-.0346-16.8773h1.6751v2.0822c.0449.008.0898.016.1346.0239.185-.2691.3653-.5417.5561-.8066.4237-.5882.9127-1.1103,1.569-1.4433.9294-.4715,1.8109-.3888,2.7199.3006-.2823.5915-.5663,1.1866-.8384,1.7566-.0937.0153-.1464.042-.1787.0265-.9463-.4552-1.7257-.1294-2.334.5981-.3804.4549-.6828.9988-.9178,1.5467-.5393,1.2577-.6345,2.6111-.6547,3.9567-.0404,2.6904-.0316,5.3816-.0428,8.0724-.001.241-.0001.4819-.0001.7634Z"/>
    <path class="d" d="M185.2396,79.7678h-.8163c-.0153-.2151-.041-.4095-.0411-.604-.0023-3.9244-.0078-7.8487.0015-11.7731.0034-1.4235.4369-2.6918,1.4796-3.7044.7555-.7338,1.6531-1.1286,2.7208-1.1257,2.3766.0064,4.7554.0668,7.1291-.0169,2.2513-.0795,3.9219,1.5644,4.3616,3.541.0917.4124.1399.8431.1411,1.2656.0105,3.9468.0067,7.8936.005,11.8403,0,.1746-.0207.3492-.0343.5646-.2474.015-.463.028-.765.0462-.01-.2928-.0263-.5524-.0264-.812-.0017-3.7898-.0023-7.5796-.0003-11.3694.0004-.7025-.0785-1.3915-.3835-2.031-.6334-1.3277-1.6426-2.0923-3.1648-2.0879-2.3317.0067-4.6647.0483-6.9949-.0125-2.0485-.0535-3.3867,1.5925-3.5742,3.238-.0379.3329-.0361.6715-.0363,1.0075-.0023,3.7225-.0015,7.4451-.0015,11.1676,0,.2653,0,.5306,0,.8662Z"/>
    <path class="d" d="M348.4253,41.8245h-1.5529c-.1481-.4734-.1993-22.5257-.0496-23.474h1.6025v23.474Z"/>
    <path class="d" d="M274.5278,60.3942h-.8283c0-.442,0-.8819,0-1.3218,0-.1794.0062-.359-.0019-.538-.024-.5301-.109-.6262-.6408-.6316-1.031-.0105-2.0623-.0034-3.0935-.0036-.6869,0-1.3738,0-2.1902,0,1.3213,3.2489,3.8335,5.0552,6.7222,6.4442v1.0631c-3.0895-1.344-5.5925-3.2252-7.1862-6.3165-1.5943,3.0407-4.0712,4.9751-7.1851,6.2956v-1.0484c2.8696-1.385,5.3709-3.1832,6.6685-6.3526-.2165-.0365-.3595-.0803-.5028-.0816-.7621-.0071-1.5248.0138-2.2862-.0111-.3706-.0121-.6051.1353-.8724.3815-.7724.7114-1.5876,1.3767-2.3956,2.0484-.1641.1365-.3706.222-.5668.3365-.2097-.6679-.0321-1.0726.5231-1.4504,1.6066-1.0934,2.8626-2.5031,3.5688-4.35.0231-.0603.0702-.1115.1191-.1868.1058.0328.2125.0581.3129.0992.1226.0501.2398.1134.4435.2116-.2825.637-.5569,1.2556-.8691,1.9597.301,0,.5387,0,.7764,0,2.6228,0,5.2455-.0009,7.8683.0004,1.1812.0006,1.6067.4286,1.6155,1.6247.0044.599.0008,1.1981.0008,1.8277Z"/>
    <path class="d" d="M191.859,73.455v-2.925h-3.9717v-.9531c.6351-.0539,1.3007-.0159,1.9632-.0228.6462-.0068,1.2925-.0015,2.0236-.0015v-2.2029c.2978-.0178.5126-.0306.7689-.0459.1823.726-.0016,1.4487.134,2.2299h3.9683v.949h-3.9779v3.0369c.5335,0,1.0411-.0002,1.5487,0,.3139.0002.6284-.0115.9416.0042.8239.0411,1.4403.5401,1.4846,1.3633.0637,1.1839.0662,2.3769-.0033,3.5602-.0496.8448-.6916,1.3388-1.5643,1.343-1.8834.0091-3.7669.0083-5.6503.0007-.9406-.0038-1.5937-.5639-1.6418-1.5069-.0548-1.0736-.0526-2.1539-.0015-3.2278.0461-.9705.697-1.5203,1.69-1.5351.6949-.0104,1.3899-.0079,2.0849-.0135.043-.0003.0859-.0215.203-.0529ZM192.3429,74.4861c-.9179,0-1.8358-.008-2.7535.0027-.6462.0075-.8577.2026-.8706.8363-.0183.8953-.0195,1.7915.0009,2.6867.0141.6229.2395.8257.8829.8282,1.8133.007,3.6267.0068,5.44.0002.6829-.0025.8853-.2024.8936-.8748.0105-.8507.0084-1.7017.0011-2.5525-.0063-.7366-.1826-.9178-.9079-.9249-.8954-.0088-1.7909-.0021-2.6864-.0019Z"/>
    <path class="d" d="M118.6307,77.273h-.8114c0-.3643.0187-.6967-.004-1.0262-.0444-.6473-.0634-1.3018-.1792-1.9376-.2874-1.5774-1.1776-2.7867-2.4308-3.7459-1.5351-1.1749-3.2924-1.9012-5.1149-2.4807-1.4721-.4681-2.9666-.8673-4.4316-1.3556-1.5779-.5259-3.0821-1.2226-4.4377-2.2057-1.4612-1.0597-2.5331-2.3939-2.9586-4.1885-.2714-1.1446-.2509-2.2992-.2057-3.4915h.7778c.0086.2679.008.5289.027.7884.0556.7585.0551,1.5282.1928,2.272.2825,1.5258,1.1661,2.6929,2.3701,3.6346,1.0152.7939,2.1404,1.4032,3.3414,1.8472,1.2375.4574,2.4965.8632,3.7627,1.2347,1.8303.5369,3.6518,1.0954,5.3291,2.0199.7228.3984,1.4247.8534,2.0757,1.3602,1.7103,1.3316,2.5747,3.1238,2.692,5.2758.0351.6438.0054,1.2912.0054,1.999Z"/>
    <path class="d" d="M310.2202,41.8309h-1.5776c-.151-.4983-.1859-16.1172-.0349-16.8906h1.6125v16.8906Z"/>
    <path class="d" d="M211.4153,41.8309h-1.5779c-.1507-.4983-.1853-16.1211-.0346-16.8907h1.6124v16.8907Z"/>
    <path class="d" d="M257.4072,75.4372h-.7509c-.0156-.1605-.0387-.2898-.039-.4192-.0025-1.0768-.0228-2.1542.0051-3.2302.0338-1.3066.5016-2.4529,1.4141-3.3962.7997-.8266,1.7712-1.2684,2.9399-1.2647,2.5793.0083,5.1587.0154,7.738-.0026,1.4668-.0102,2.5865.6193,3.4539,1.7571.5426.7117.9068,1.5276.9503,2.4097.067,1.3601.0176,2.7259.0176,4.1353h-.7828c0-.3721.0082-.7255-.0015-1.0784-.0292-1.052.0007-2.1114-.1175-3.1537-.1181-1.0421-.6806-1.8889-1.5374-2.5118-.5792-.4211-1.2302-.6104-1.9543-.6068-2.512.0124-5.0255.0571-7.5356-.0131-1.7755-.0497-3.2172,1.2144-3.624,2.9048-.0883.367-.1264.7529-.1336,1.1311-.0185.9643-.0052,1.9292-.008,2.8938-.0004.131-.0197.262-.0344.445Z"/>
    <path class="d" d="M255.947,79.7672v-.838c.2793-.0084.54-.0026.7979-.0265.7783-.072,1.571-.0842,2.3298-.2497,1.5235-.3321,2.7649-1.1836,3.6827-2.4262.5943-.8046,1.0603-1.7069,1.5479-2.5854.1216-.2191.1362-.5143.1446-.7762.0198-.6224.0064-1.2459.0064-1.9101h.8501c0,.5746.0179,1.1286-.0056,1.6809-.0197.4627.0864.8785.2892,1.2914.4564.9292.9773,1.8134,1.6645,2.5932,1.2964,1.4712,2.9262,2.2574,4.8811,2.3561.5539.028,1.1104.0043,1.7023.0043v.8696c-4.2576.4147-7.1517-1.4677-8.9306-5.3849-1.0685,2.1631-2.3762,3.948-4.5879,4.847-1.397.5679-2.8547.6705-4.3724.5545Z"/>
    <path class="d" d="M184.6903,57.9366v-.8744h7.1637v-2.2688h.8705v2.2489h7.2141v.8943h-15.2483Z"/>
    <path class="d" d="M182.6836,79.7613h-.767c0-.252.0054-.4898-.0009-.7273-.0399-1.5003-.0531-3.0022-.1332-4.5004-.0637-1.1919-.4925-2.2697-1.2351-3.2141-.1524-.1938-.2908-.3998-.4542-.5838-1.4178-1.5962-2.0214-3.5152-2.1936-5.5943-.0848-1.0239-.1082-2.0528-.1632-3.1546.3-.0161.5309-.0285.8368-.0449.0253.4661.0599.8819.0681,1.2982.0245,1.2352.1182,2.4598.4081,3.6671.2234.9307.608,1.7775,1.1831,2.5395.3646.4831.733.9633,1.0992,1.4452.9174,1.2076,1.2826,2.6137,1.3558,4.0871.0744,1.4987.0441,3.0027.0557,4.5043.0006.0843-.0352.1688-.0595.2778Z"/>
    <path class="d" d="M255.5922,54.9527h.7614c0,.2525.0177.4903-.0029.7247-.1342,1.5283.0701,2.9843.8147,4.3544.6555,1.2063.5787,2.5057.3708,3.8052-.0806.504-.1898,1.0034-.2904,1.528h-.8326c.0917-.5701.1906-1.1097.2621-1.653.0642-.4875.1213-.978.1401-1.4688.0272-.7096-.178-1.3701-.5077-1.9946-.8731-1.6536-.9963-3.4093-.7156-5.2959Z"/>
    <path class="d" d="M212.0871,19.6615c-.0891.5413-.2055,1.007-.5431,1.4007-.5471.638-1.3646.6437-1.9135.0112-.6158-.7096-.6299-1.9333-.0306-2.6645.5701-.6957,1.4746-.6997,1.9834.0467.2404.3526.3403.8009.5039,1.2059Z"/>
    <path class="d" d="M310.8021,19.7272c-.0022.5066-.129.9696-.4726,1.3575-.5382.6074-1.3274.6148-1.8699.0169-.6641-.732-.6601-2.0385.0085-2.7657.5469-.5948,1.3324-.5825,1.8666.031.3395.3898.4629.8551.4674,1.3604Z"/>
    <path class="d" d="M108.6075,79.7901h-.7712v-5.9278h.7712v5.9278Z"/>
    <path class="d" d="M118.724,62.8332c-.2477-.0142-.4627-.0266-.7114-.0409v-5.9471c.245-.015.4597-.0282.6669-.0409.1513.4918.189,5.1144.0445,6.0289Z"/>
    <path class="d" d="M97.9235,77.7125v-5.9234h.7648c.0559,1.9591.0105,3.9169.0256,5.9234h-.7904Z"/>
    <path class="d" d="M108.6338,60.6905h-.7707c-.0473-1.9562-.0113-3.9075-.0244-5.9026h.7951v5.9026Z"/>
    <path class="d" d="M177.8101,54.9575h.7715c.0728,1.3564.0208,2.7062.0327,4.0911-.184.0249-.3104.0532-.4372.0558-.1083.0022-.2173-.0252-.367-.045v-4.1018Z"/>
  </g>
</svg>
